<?xml version="1.0" standalone="no"?>
<svg xmlns="http://www.w3.org/2000/svg" width="400" height="400" xmlns:xlink="http://www.w3.org/1999/xlink" viewBox="0 0 400 400"><defs><clipPath id="clip-path-background-color-0"><rect x="0" y="0" width="400" height="400"/></clipPath><clipPath id="clip-path-dot-color-0"><path d="M 105 33v 9h 4.5a 4.5 4.5, 0, 0, 0, 0 -9" transform="rotate(-90,109.5,37.5)"/><path d="M 123 33v 9h 9v -4.5a 4.5 4.5, 0, 0, 0, -4.5 -4.5" transform="rotate(-90,127.5,37.5)"/><rect x="132" y="33" width="9" height="9" transform="rotate(0,136.5,37.5)"/><path d="M 141 33v 9h 9v -4.5a 4.5 4.5, 0, 0, 0, -4.5 -4.5" transform="rotate(0,145.5,37.5)"/><path d="M 168 33v 9h 9v -4.5a 4.5 4.5, 0, 0, 0, -4.5 -4.5" transform="rotate(-90,172.5,37.5)"/><path d="M 177 33v 9h 9v -4.5a 4.5 4.5, 0, 0, 0, -4.5 -4.5" transform="rotate(0,181.5,37.5)"/><path d="M 204 33v 9h 9v -4.5a 4.5 4.5, 0, 0, 0, -4.5 -4.5" transform="rotate(-90,208.5,37.5)"/><rect x="213" y="33" width="9" height="9" transform="rotate(0,217.5,37.5)"/><path d="M 222 33v 9h 4.5a 4.5 4.5, 0, 0, 0, 0 -9" transform="rotate(0,226.5,37.5)"/><path d="M 240 33v 9h 4.5a 4.5 4.5, 0, 0, 0, 0 -9" transform="rotate(180,244.5,37.5)"/><path d="M 249 33v 9h 9v -4.5a 4.5 4.5, 0, 0, 0, -4.5 -4.5" transform="rotate(0,253.5,37.5)"/><path d="M 267 33v 9h 4.5a 4.5 4.5, 0, 0, 0, 0 -9" transform="rotate(-90,271.5,37.5)"/><rect x="105" y="42" width="9" height="9" transform="rotate(0,109.5,46.5)"/><rect x="114" y="42" width="9" height="9" transform="rotate(0,118.5,46.5)"/><rect x="123" y="42" width="9" height="9" transform="rotate(0,127.5,46.5)"/><rect x="132" y="42" width="9" height="9" transform="rotate(0,136.5,46.5)"/><rect x="141" y="42" width="9" height="9" transform="rotate(0,145.5,46.5)"/><rect x="150" y="42" width="9" height="9" transform="rotate(0,154.5,46.5)"/><rect x="159" y="42" width="9" height="9" transform="rotate(0,163.5,46.5)"/><rect x="168" y="42" width="9" height="9" transform="rotate(0,172.5,46.5)"/><rect x="177" y="42" width="9" height="9" transform="rotate(0,181.5,46.5)"/><rect x="186" y="42" width="9" height="9" transform="rotate(0,190.5,46.5)"/><rect x="195" y="42" width="9" height="9" transform="rotate(0,199.5,46.5)"/><path d="M 204 42v 9h 9v -4.5a 4.5 4.5, 0, 0, 0, -4.5 -4.5" transform="rotate(90,208.5,46.5)"/><rect x="249" y="42" width="9" height="9" transform="rotate(0,253.5,46.5)"/><rect x="267" y="42" width="9" height="9" transform="rotate(0,271.5,46.5)"/><path d="M 276 42v 9h 9v -4.5a 4.5 4.5, 0, 0, 0, -4.5 -4.5" transform="rotate(0,280.5,46.5)"/><path d="M 105 51v 9h 4.5a 4.5 4.5, 0, 0, 0, 0 -9" transform="rotate(90,109.5,55.5)"/><rect x="123" y="51" width="9" height="9" transform="rotate(0,127.5,55.5)"/><rect x="150" y="51" width="9" height="9" transform="rotate(0,154.5,55.5)"/><rect x="159" y="51" width="9" height="9" transform="rotate(0,163.5,55.5)"/><rect x="168" y="51" width="9" height="9" transform="rotate(0,172.5,55.5)"/><path d="M 177 51v 9h 9v -4.5a 4.5 4.5, 0, 0, 0, -4.5 -4.5" transform="rotate(90,181.5,55.5)"/><path d="M 222 51v 9h 4.5a 4.5 4.5, 0, 0, 0, 0 -9" transform="rotate(180,226.5,55.5)"/><path d="M 231 51v 9h 4.5a 4.5 4.5, 0, 0, 0, 0 -9" transform="rotate(0,235.5,55.5)"/><path d="M 249 51v 9h 4.5a 4.5 4.5, 0, 0, 0, 0 -9" transform="rotate(90,253.5,55.5)"/><rect x="267" y="51" width="9" height="9" transform="rotate(0,271.5,55.5)"/><rect x="276" y="51" width="9" height="9" transform="rotate(0,280.5,55.5)"/><path d="M 114 60v 9h 4.5a 4.5 4.5, 0, 0, 0, 0 -9" transform="rotate(180,118.5,64.5)"/><rect x="123" y="60" width="9" height="9" transform="rotate(0,127.5,64.5)"/><path d="M 132 60v 9h 4.5a 4.5 4.5, 0, 0, 0, 0 -9" transform="rotate(0,136.5,64.5)"/><rect x="150" y="60" width="9" height="9" transform="rotate(0,154.5,64.5)"/><rect x="159" y="60" width="9" height="9" transform="rotate(0,163.5,64.5)"/><path d="M 168 60v 9h 9v -4.5a 4.5 4.5, 0, 0, 0, -4.5 -4.5" transform="rotate(90,172.5,64.5)"/><circle cx="190.5" cy="64.5" r="4.5" transform="rotate(0,190.5,64.5)"/><path d="M 204 60v 9h 4.5a 4.5 4.5, 0, 0, 0, 0 -9" transform="rotate(180,208.5,64.5)"/><path d="M 213 60v 9h 9v -4.5a 4.5 4.5, 0, 0, 0, -4.5 -4.5" transform="rotate(0,217.5,64.5)"/><path d="M 240 60v 9h 4.5a 4.5 4.5, 0, 0, 0, 0 -9" transform="rotate(-90,244.5,64.5)"/><path d="M 258 60v 9h 4.5a 4.5 4.5, 0, 0, 0, 0 -9" transform="rotate(180,262.5,64.5)"/><rect x="267" y="60" width="9" height="9" transform="rotate(0,271.5,64.5)"/><rect x="276" y="60" width="9" height="9" transform="rotate(0,280.5,64.5)"/><path d="M 285 60v 9h 4.5a 4.5 4.5, 0, 0, 0, 0 -9" transform="rotate(0,289.5,64.5)"/><rect x="150" y="69" width="9" height="9" transform="rotate(0,154.5,73.5)"/><path d="M 177 69v 9h 4.5a 4.5 4.5, 0, 0, 0, 0 -9" transform="rotate(-90,181.5,73.5)"/><rect x="213" y="69" width="9" height="9" transform="rotate(0,217.5,73.5)"/><path d="M 231 69v 9h 4.5a 4.5 4.5, 0, 0, 0, 0 -9" transform="rotate(180,235.5,73.5)"/><rect x="240" y="69" width="9" height="9" transform="rotate(0,244.5,73.5)"/><path d="M 249 69v 9h 9v -4.5a 4.5 4.5, 0, 0, 0, -4.5 -4.5" transform="rotate(0,253.5,73.5)"/><path d="M 105 78v 9h 4.5a 4.5 4.5, 0, 0, 0, 0 -9" transform="rotate(-90,109.5,82.5)"/><path d="M 123 78v 9h 9v -4.5a 4.5 4.5, 0, 0, 0, -4.5 -4.5" transform="rotate(-90,127.5,82.5)"/><path d="M 132 78v 9h 4.5a 4.5 4.5, 0, 0, 0, 0 -9" transform="rotate(0,136.5,82.5)"/><path d="M 150 78v 9h 9v -4.5a 4.5 4.5, 0, 0, 0, -4.5 -4.5" transform="rotate(180,154.5,82.5)"/><path d="M 159 78v 9h 9v -4.5a 4.5 4.5, 0, 0, 0, -4.5 -4.5" transform="rotate(0,163.5,82.5)"/><rect x="177" y="78" width="9" height="9" transform="rotate(0,181.5,82.5)"/><path d="M 204 78v 9h 4.5a 4.5 4.5, 0, 0, 0, 0 -9" transform="rotate(180,208.5,82.5)"/><rect x="213" y="78" width="9" height="9" transform="rotate(0,217.5,82.5)"/><path d="M 240 78v 9h 9v -4.5a 4.5 4.5, 0, 0, 0, -4.5 -4.5" transform="rotate(180,244.5,82.5)"/><rect x="249" y="78" width="9" height="9" transform="rotate(0,253.5,82.5)"/><rect x="258" y="78" width="9" height="9" transform="rotate(0,262.5,82.5)"/><rect x="267" y="78" width="9" height="9" transform="rotate(0,271.5,82.5)"/><path d="M 276 78v 9h 4.5a 4.5 4.5, 0, 0, 0, 0 -9" transform="rotate(0,280.5,82.5)"/><rect x="105" y="87" width="9" height="9" transform="rotate(0,109.5,91.5)"/><path d="M 123 87v 9h 4.5a 4.5 4.5, 0, 0, 0, 0 -9" transform="rotate(90,127.5,91.5)"/><circle cx="145.5" cy="91.5" r="4.5" transform="rotate(0,145.5,91.5)"/><rect x="159" y="87" width="9" height="9" transform="rotate(0,163.5,91.5)"/><path d="M 177 87v 9h 4.5a 4.5 4.5, 0, 0, 0, 0 -9" transform="rotate(90,181.5,91.5)"/><circle cx="199.5" cy="91.5" r="4.5" transform="rotate(0,199.5,91.5)"/><path d="M 213 87v 9h 4.5a 4.5 4.5, 0, 0, 0, 0 -9" transform="rotate(90,217.5,91.5)"/><circle cx="235.5" cy="91.5" r="4.5" transform="rotate(0,235.5,91.5)"/><rect x="249" y="87" width="9" height="9" transform="rotate(0,253.5,91.5)"/><path d="M 267 87v 9h 4.5a 4.5 4.5, 0, 0, 0, 0 -9" transform="rotate(90,271.5,91.5)"/><path d="M 285 87v 9h 4.5a 4.5 4.5, 0, 0, 0, 0 -9" transform="rotate(-90,289.5,91.5)"/><rect x="105" y="96" width="9" height="9" transform="rotate(0,109.5,100.5)"/><path d="M 114 96v 9h 4.5a 4.5 4.5, 0, 0, 0, 0 -9" transform="rotate(0,118.5,100.5)"/><path d="M 150 96v 9h 9v -4.5a 4.5 4.5, 0, 0, 0, -4.5 -4.5" transform="rotate(-90,154.5,100.5)"/><rect x="159" y="96" width="9" height="9" transform="rotate(0,163.5,100.5)"/><path d="M 168 96v 9h 4.5a 4.5 4.5, 0, 0, 0, 0 -9" transform="rotate(0,172.5,100.5)"/><path d="M 222 96v 9h 4.5a 4.5 4.5, 0, 0, 0, 0 -9" transform="rotate(-90,226.5,100.5)"/><rect x="249" y="96" width="9" height="9" transform="rotate(0,253.5,100.5)"/><rect x="285" y="96" width="9" height="9" transform="rotate(0,289.5,100.5)"/><path d="M 51 105v 9h 4.5a 4.5 4.5, 0, 0, 0, 0 -9" transform="rotate(180,55.5,109.5)"/><rect x="60" y="105" width="9" height="9" transform="rotate(0,64.5,109.5)"/><path d="M 69 105v 9h 4.5a 4.5 4.5, 0, 0, 0, 0 -9" transform="rotate(0,73.5,109.5)"/><circle cx="91.5" cy="109.5" r="4.5" transform="rotate(0,91.5,109.5)"/><path d="M 105 105v 9h 4.5a 4.5 4.5, 0, 0, 0, 0 -9" transform="rotate(90,109.5,109.5)"/><path d="M 123 105v 9h 4.5a 4.5 4.5, 0, 0, 0, 0 -9" transform="rotate(-90,127.5,109.5)"/><rect x="150" y="105" width="9" height="9" transform="rotate(0,154.5,109.5)"/><rect x="159" y="105" width="9" height="9" transform="rotate(0,163.5,109.5)"/><path d="M 177 105v 9h 9v -4.5a 4.5 4.5, 0, 0, 0, -4.5 -4.5" transform="rotate(-90,181.5,109.5)"/><path d="M 186 105v 9h 4.5a 4.5 4.5, 0, 0, 0, 0 -9" transform="rotate(0,190.5,109.5)"/><path d="M 213 105v 9h 9v -4.5a 4.5 4.5, 0, 0, 0, -4.5 -4.5" transform="rotate(-90,217.5,109.5)"/><path d="M 222 105v 9h 9v -4.5a 4.5 4.5, 0, 0, 0, -4.5 -4.5" transform="rotate(90,226.5,109.5)"/><rect x="249" y="105" width="9" height="9" transform="rotate(0,253.5,109.5)"/><path d="M 258 105v 9h 4.5a 4.5 4.5, 0, 0, 0, 0 -9" transform="rotate(0,262.5,109.5)"/><path d="M 276 105v 9h 4.5a 4.5 4.5, 0, 0, 0, 0 -9" transform="rotate(180,280.5,109.5)"/><rect x="285" y="105" width="9" height="9" transform="rotate(0,289.5,109.5)"/><rect x="294" y="105" width="9" height="9" transform="rotate(0,298.5,109.5)"/><rect x="303" y="105" width="9" height="9" transform="rotate(0,307.5,109.5)"/><path d="M 312 105v 9h 4.5a 4.5 4.5, 0, 0, 0, 0 -9" transform="rotate(0,316.5,109.5)"/><path d="M 339 105v 9h 9v -4.5a 4.5 4.5, 0, 0, 0, -4.5 -4.5" transform="rotate(-90,343.5,109.5)"/><rect x="348" y="105" width="9" height="9" transform="rotate(0,352.5,109.5)"/><path d="M 357 105v 9h 9v -4.5a 4.5 4.5, 0, 0, 0, -4.5 -4.5" transform="rotate(0,361.5,109.5)"/><path d="M 78 114v 9h 4.5a 4.5 4.5, 0, 0, 0, 0 -9" transform="rotate(-90,82.5,118.5)"/><path d="M 114 114v 9h 9v -4.5a 4.5 4.5, 0, 0, 0, -4.5 -4.5" transform="rotate(-90,118.5,118.5)"/><path d="M 123 114v 9h 9v -4.5a 4.5 4.5, 0, 0, 0, -4.5 -4.5" transform="rotate(90,127.5,118.5)"/><path d="M 141 114v 9h 4.5a 4.5 4.5, 0, 0, 0, 0 -9" transform="rotate(180,145.5,118.5)"/><rect x="150" y="114" width="9" height="9" transform="rotate(0,154.5,118.5)"/><path d="M 159 114v 9h 9v -4.5a 4.5 4.5, 0, 0, 0, -4.5 -4.5" transform="rotate(90,163.5,118.5)"/><rect x="177" y="114" width="9" height="9" transform="rotate(0,181.5,118.5)"/><path d="M 213 114v 9h 4.5a 4.5 4.5, 0, 0, 0, 0 -9" transform="rotate(90,217.5,118.5)"/><rect x="249" y="114" width="9" height="9" transform="rotate(0,253.5,118.5)"/><path d="M 267 114v 9h 4.5a 4.5 4.5, 0, 0, 0, 0 -9" transform="rotate(-90,271.5,118.5)"/><path d="M 294 114v 9h 4.5a 4.5 4.5, 0, 0, 0, 0 -9" transform="rotate(90,298.5,118.5)"/><rect x="339" y="114" width="9" height="9" transform="rotate(0,343.5,118.5)"/><rect x="357" y="114" width="9" height="9" transform="rotate(0,361.5,118.5)"/><path d="M 42 123v 9h 4.5a 4.5 4.5, 0, 0, 0, 0 -9" transform="rotate(-90,46.5,127.5)"/><path d="M 78 123v 9h 9v -4.5a 4.5 4.5, 0, 0, 0, -4.5 -4.5" transform="rotate(180,82.5,127.5)"/><path d="M 87 123v 9h 4.5a 4.5 4.5, 0, 0, 0, 0 -9" transform="rotate(0,91.5,127.5)"/><path d="M 105 123v 9h 4.5a 4.5 4.5, 0, 0, 0, 0 -9" transform="rotate(180,109.5,127.5)"/><path d="M 114 123v 9h 9v -4.5a 4.5 4.5, 0, 0, 0, -4.5 -4.5" transform="rotate(90,118.5,127.5)"/><path d="M 150 123v 9h 4.5a 4.5 4.5, 0, 0, 0, 0 -9" transform="rotate(90,154.5,127.5)"/><rect x="177" y="123" width="9" height="9" transform="rotate(0,181.5,127.5)"/><path d="M 186 123v 9h 4.5a 4.5 4.5, 0, 0, 0, 0 -9" transform="rotate(0,190.5,127.5)"/><circle cx="208.5" cy="127.5" r="4.5" transform="rotate(0,208.5,127.5)"/><path d="M 222 123v 9h 4.5a 4.5 4.5, 0, 0, 0, 0 -9" transform="rotate(-90,226.5,127.5)"/><path d="M 240 123v 9h 9v -4.5a 4.5 4.5, 0, 0, 0, -4.5 -4.5" transform="rotate(-90,244.5,127.5)"/><path d="M 249 123v 9h 9v -4.5a 4.5 4.5, 0, 0, 0, -4.5 -4.5" transform="rotate(90,253.5,127.5)"/><path d="M 267 123v 9h 9v -4.5a 4.5 4.5, 0, 0, 0, -4.5 -4.5" transform="rotate(180,271.5,127.5)"/><path d="M 276 123v 9h 4.5a 4.5 4.5, 0, 0, 0, 0 -9" transform="rotate(0,280.5,127.5)"/><path d="M 303 123v 9h 4.5a 4.5 4.5, 0, 0, 0, 0 -9" transform="rotate(-90,307.5,127.5)"/><path d="M 330 123v 9h 4.5a 4.5 4.5, 0, 0, 0, 0 -9" transform="rotate(180,334.5,127.5)"/><rect x="339" y="123" width="9" height="9" transform="rotate(0,343.5,127.5)"/><rect x="348" y="123" width="9" height="9" transform="rotate(0,352.5,127.5)"/><rect x="357" y="123" width="9" height="9" transform="rotate(0,361.5,127.5)"/><path d="M 42 132v 9h 9v -4.5a 4.5 4.5, 0, 0, 0, -4.5 -4.5" transform="rotate(180,46.5,136.5)"/><rect x="51" y="132" width="9" height="9" transform="rotate(0,55.5,136.5)"/><path d="M 60 132v 9h 4.5a 4.5 4.5, 0, 0, 0, 0 -9" transform="rotate(0,64.5,136.5)"/><path d="M 96 132v 9h 4.5a 4.5 4.5, 0, 0, 0, 0 -9" transform="rotate(-90,100.5,136.5)"/><path d="M 123 132v 9h 4.5a 4.5 4.5, 0, 0, 0, 0 -9" transform="rotate(-90,127.5,136.5)"/><path d="M 168 132v 9h 4.5a 4.5 4.5, 0, 0, 0, 0 -9" transform="rotate(180,172.5,136.5)"/><rect x="177" y="132" width="9" height="9" transform="rotate(0,181.5,136.5)"/><circle cx="199.5" cy="136.5" r="4.5" transform="rotate(0,199.5,136.5)"/><path d="M 213 132v 9h 9v -4.5a 4.5 4.5, 0, 0, 0, -4.5 -4.5" transform="rotate(-90,217.5,136.5)"/><rect x="222" y="132" width="9" height="9" transform="rotate(0,226.5,136.5)"/><path d="M 240 132v 9h 4.5a 4.5 4.5, 0, 0, 0, 0 -9" transform="rotate(90,244.5,136.5)"/><rect x="303" y="132" width="9" height="9" transform="rotate(0,307.5,136.5)"/><rect x="357" y="132" width="9" height="9" transform="rotate(0,361.5,136.5)"/><rect x="51" y="141" width="9" height="9" transform="rotate(0,55.5,145.5)"/><path d="M 69 141v 9h 9v -4.5a 4.5 4.5, 0, 0, 0, -4.5 -4.5" transform="rotate(-90,73.5,145.5)"/><rect x="78" y="141" width="9" height="9" transform="rotate(0,82.5,145.5)"/><rect x="87" y="141" width="9" height="9" transform="rotate(0,91.5,145.5)"/><rect x="96" y="141" width="9" height="9" transform="rotate(0,100.5,145.5)"/><rect x="105" y="141" width="9" height="9" transform="rotate(0,109.5,145.5)"/><rect x="114" y="141" width="9" height="9" transform="rotate(0,118.5,145.5)"/><rect x="123" y="141" width="9" height="9" transform="rotate(0,127.5,145.5)"/><path d="M 141 141v 9h 4.5a 4.5 4.5, 0, 0, 0, 0 -9" transform="rotate(180,145.5,145.5)"/><rect x="150" y="141" width="9" height="9" transform="rotate(0,154.5,145.5)"/><path d="M 159 141v 9h 9v -4.5a 4.5 4.5, 0, 0, 0, -4.5 -4.5" transform="rotate(0,163.5,145.5)"/><path d="M 177 141v 9h 9v -4.5a 4.5 4.5, 0, 0, 0, -4.5 -4.5" transform="rotate(180,181.5,145.5)"/><path d="M 186 141v 9h 9v -4.5a 4.5 4.5, 0, 0, 0, -4.5 -4.5" transform="rotate(0,190.5,145.5)"/><rect x="213" y="141" width="9" height="9" transform="rotate(0,217.5,145.5)"/><rect x="222" y="141" width="9" height="9" transform="rotate(0,226.5,145.5)"/><path d="M 231 141v 9h 4.5a 4.5 4.5, 0, 0, 0, 0 -9" transform="rotate(0,235.5,145.5)"/><path d="M 249 141v 9h 4.5a 4.5 4.5, 0, 0, 0, 0 -9" transform="rotate(180,253.5,145.5)"/><path d="M 258 141v 9h 9v -4.5a 4.5 4.5, 0, 0, 0, -4.5 -4.5" transform="rotate(0,262.5,145.5)"/><circle cx="280.5" cy="145.5" r="4.5" transform="rotate(0,280.5,145.5)"/><path d="M 303 141v 9h 4.5a 4.5 4.5, 0, 0, 0, 0 -9" transform="rotate(90,307.5,145.5)"/><path d="M 321 141v 9h 4.5a 4.5 4.5, 0, 0, 0, 0 -9" transform="rotate(180,325.5,145.5)"/><rect x="330" y="141" width="9" height="9" transform="rotate(0,334.5,145.5)"/><path d="M 339 141v 9h 4.5a 4.5 4.5, 0, 0, 0, 0 -9" transform="rotate(0,343.5,145.5)"/><path d="M 357 141v 9h 4.5a 4.5 4.5, 0, 0, 0, 0 -9" transform="rotate(90,361.5,145.5)"/><path d="M 33 150v 9h 9v -4.5a 4.5 4.5, 0, 0, 0, -4.5 -4.5" transform="rotate(-90,37.5,154.5)"/><rect x="42" y="150" width="9" height="9" transform="rotate(0,46.5,154.5)"/><rect x="51" y="150" width="9" height="9" transform="rotate(0,55.5,154.5)"/><rect x="69" y="150" width="9" height="9" transform="rotate(0,73.5,154.5)"/><rect x="78" y="150" width="9" height="9" transform="rotate(0,82.5,154.5)"/><rect x="123" y="150" width="9" height="9" transform="rotate(0,127.5,154.5)"/><rect x="159" y="150" width="9" height="9" transform="rotate(0,163.5,154.5)"/><path d="M 168 150v 9h 9v -4.5a 4.5 4.5, 0, 0, 0, -4.5 -4.5" transform="rotate(0,172.5,154.5)"/><path d="M 186 150v 9h 4.5a 4.5 4.5, 0, 0, 0, 0 -9" transform="rotate(90,190.5,154.5)"/><path d="M 213 150v 9h 4.5a 4.5 4.5, 0, 0, 0, 0 -9" transform="rotate(90,217.5,154.5)"/><rect x="258" y="150" width="9" height="9" transform="rotate(0,262.5,154.5)"/><path d="M 267 150v 9h 4.5a 4.5 4.5, 0, 0, 0, 0 -9" transform="rotate(0,271.5,154.5)"/><path d="M 285 150v 9h 4.5a 4.5 4.5, 0, 0, 0, 0 -9" transform="rotate(180,289.5,154.5)"/><path d="M 294 150v 9h 4.5a 4.5 4.5, 0, 0, 0, 0 -9" transform="rotate(0,298.5,154.5)"/><circle cx="316.5" cy="154.5" r="4.5" transform="rotate(0,316.5,154.5)"/><path d="M 330 150v 9h 4.5a 4.5 4.5, 0, 0, 0, 0 -9" transform="rotate(90,334.5,154.5)"/><circle cx="352.5" cy="154.5" r="4.5" transform="rotate(0,352.5,154.5)"/><rect x="33" y="159" width="9" height="9" transform="rotate(0,37.5,163.5)"/><rect x="42" y="159" width="9" height="9" transform="rotate(0,46.5,163.5)"/><rect x="51" y="159" width="9" height="9" transform="rotate(0,55.5,163.5)"/><rect x="60" y="159" width="9" height="9" transform="rotate(0,64.5,163.5)"/><rect x="69" y="159" width="9" height="9" transform="rotate(0,73.5,163.5)"/><rect x="78" y="159" width="9" height="9" transform="rotate(0,82.5,163.5)"/><rect x="87" y="159" width="9" height="9" transform="rotate(0,91.5,163.5)"/><rect x="96" y="159" width="9" height="9" transform="rotate(0,100.5,163.5)"/><path d="M 105 159v 9h 4.5a 4.5 4.5, 0, 0, 0, 0 -9" transform="rotate(0,109.5,163.5)"/><rect x="123" y="159" width="9" height="9" transform="rotate(0,127.5,163.5)"/><path d="M 141 159v 9h 9v -4.5a 4.5 4.5, 0, 0, 0, -4.5 -4.5" transform="rotate(-90,145.5,163.5)"/><rect x="150" y="159" width="9" height="9" transform="rotate(0,154.5,163.5)"/><rect x="159" y="159" width="9" height="9" transform="rotate(0,163.5,163.5)"/><path d="M 168 159v 9h 9v -4.5a 4.5 4.5, 0, 0, 0, -4.5 -4.5" transform="rotate(90,172.5,163.5)"/><path d="M 195 159v 9h 4.5a 4.5 4.5, 0, 0, 0, 0 -9" transform="rotate(-90,199.5,163.5)"/><path d="M 222 159v 9h 4.5a 4.5 4.5, 0, 0, 0, 0 -9" transform="rotate(180,226.5,163.5)"/><rect x="231" y="159" width="9" height="9" transform="rotate(0,235.5,163.5)"/><path d="M 240 159v 9h 4.5a 4.5 4.5, 0, 0, 0, 0 -9" transform="rotate(0,244.5,163.5)"/><path d="M 258 159v 9h 4.5a 4.5 4.5, 0, 0, 0, 0 -9" transform="rotate(90,262.5,163.5)"/><path d="M 276 159v 9h 4.5a 4.5 4.5, 0, 0, 0, 0 -9" transform="rotate(-90,280.5,163.5)"/><path d="M 303 159v 9h 4.5a 4.5 4.5, 0, 0, 0, 0 -9" transform="rotate(-90,307.5,163.5)"/><circle cx="343.5" cy="163.5" r="4.5" transform="rotate(0,343.5,163.5)"/><path d="M 357 159v 9h 4.5a 4.5 4.5, 0, 0, 0, 0 -9" transform="rotate(-90,361.5,163.5)"/><path d="M 33 168v 9h 4.5a 4.5 4.5, 0, 0, 0, 0 -9" transform="rotate(90,37.5,172.5)"/><rect x="51" y="168" width="9" height="9" transform="rotate(0,55.5,172.5)"/><path d="M 78 168v 9h 4.5a 4.5 4.5, 0, 0, 0, 0 -9" transform="rotate(90,82.5,172.5)"/><path d="M 114 168v 9h 4.5a 4.5 4.5, 0, 0, 0, 0 -9" transform="rotate(180,118.5,172.5)"/><path d="M 123 168v 9h 9v -4.5a 4.5 4.5, 0, 0, 0, -4.5 -4.5" transform="rotate(90,127.5,172.5)"/><path d="M 141 168v 9h 4.5a 4.5 4.5, 0, 0, 0, 0 -9" transform="rotate(90,145.5,172.5)"/><path d="M 186 168v 9h 9v -4.5a 4.5 4.5, 0, 0, 0, -4.5 -4.5" transform="rotate(-90,190.5,172.5)"/><rect x="195" y="168" width="9" height="9" transform="rotate(0,199.5,172.5)"/><path d="M 204 168v 9h 9v -4.5a 4.5 4.5, 0, 0, 0, -4.5 -4.5" transform="rotate(0,208.5,172.5)"/><path d="M 267 168v 9h 9v -4.5a 4.5 4.5, 0, 0, 0, -4.5 -4.5" transform="rotate(-90,271.5,172.5)"/><rect x="276" y="168" width="9" height="9" transform="rotate(0,280.5,172.5)"/><path d="M 285 168v 9h 9v -4.5a 4.5 4.5, 0, 0, 0, -4.5 -4.5" transform="rotate(0,289.5,172.5)"/><rect x="303" y="168" width="9" height="9" transform="rotate(0,307.5,172.5)"/><circle cx="334.5" cy="172.5" r="4.5" transform="rotate(0,334.5,172.5)"/><path d="M 348 168v 9h 4.5a 4.5 4.5, 0, 0, 0, 0 -9" transform="rotate(180,352.5,172.5)"/><rect x="357" y="168" width="9" height="9" transform="rotate(0,361.5,172.5)"/><path d="M 42 177v 9h 4.5a 4.5 4.5, 0, 0, 0, 0 -9" transform="rotate(180,46.5,181.5)"/><path d="M 51 177v 9h 9v -4.5a 4.5 4.5, 0, 0, 0, -4.5 -4.5" transform="rotate(90,55.5,181.5)"/><path d="M 87 177v 9h 4.5a 4.5 4.5, 0, 0, 0, 0 -9" transform="rotate(180,91.5,181.5)"/><path d="M 96 177v 9h 4.5a 4.5 4.5, 0, 0, 0, 0 -9" transform="rotate(0,100.5,181.5)"/><path d="M 159 177v 9h 4.5a 4.5 4.5, 0, 0, 0, 0 -9" transform="rotate(180,163.5,181.5)"/><path d="M 168 177v 9h 4.5a 4.5 4.5, 0, 0, 0, 0 -9" transform="rotate(0,172.5,181.5)"/><path d="M 186 177v 9h 4.5a 4.5 4.5, 0, 0, 0, 0 -9" transform="rotate(90,190.5,181.5)"/><path d="M 204 177v 9h 4.5a 4.5 4.5, 0, 0, 0, 0 -9" transform="rotate(90,208.5,181.5)"/><circle cx="226.5" cy="181.5" r="4.5" transform="rotate(0,226.5,181.5)"/><path d="M 267 177v 9h 9v -4.5a 4.5 4.5, 0, 0, 0, -4.5 -4.5" transform="rotate(180,271.5,181.5)"/><rect x="276" y="177" width="9" height="9" transform="rotate(0,280.5,181.5)"/><path d="M 285 177v 9h 9v -4.5a 4.5 4.5, 0, 0, 0, -4.5 -4.5" transform="rotate(90,289.5,181.5)"/><path d="M 303 177v 9h 9v -4.5a 4.5 4.5, 0, 0, 0, -4.5 -4.5" transform="rotate(180,307.5,181.5)"/><rect x="312" y="177" width="9" height="9" transform="rotate(0,316.5,181.5)"/><path d="M 321 177v 9h 4.5a 4.5 4.5, 0, 0, 0, 0 -9" transform="rotate(0,325.5,181.5)"/><path d="M 339 177v 9h 4.5a 4.5 4.5, 0, 0, 0, 0 -9" transform="rotate(-90,343.5,181.5)"/><rect x="357" y="177" width="9" height="9" transform="rotate(0,361.5,181.5)"/><circle cx="37.5" cy="190.5" r="4.5" transform="rotate(0,37.5,190.5)"/><circle cx="73.5" cy="190.5" r="4.5" transform="rotate(0,73.5,190.5)"/><path d="M 105 186v 9h 4.5a 4.5 4.5, 0, 0, 0, 0 -9" transform="rotate(-90,109.5,190.5)"/><path d="M 123 186v 9h 4.5a 4.5 4.5, 0, 0, 0, 0 -9" transform="rotate(180,127.5,190.5)"/><path d="M 132 186v 9h 9v -4.5a 4.5 4.5, 0, 0, 0, -4.5 -4.5" transform="rotate(0,136.5,190.5)"/><circle cx="181.5" cy="190.5" r="4.5" transform="rotate(0,181.5,190.5)"/><circle cx="199.5" cy="190.5" r="4.5" transform="rotate(0,199.5,190.5)"/><path d="M 213 186v 9h 4.5a 4.5 4.5, 0, 0, 0, 0 -9" transform="rotate(-90,217.5,190.5)"/><circle cx="262.5" cy="190.5" r="4.5" transform="rotate(0,262.5,190.5)"/><path d="M 330 186v 9h 4.5a 4.5 4.5, 0, 0, 0, 0 -9" transform="rotate(180,334.5,190.5)"/><rect x="339" y="186" width="9" height="9" transform="rotate(0,343.5,190.5)"/><rect x="357" y="186" width="9" height="9" transform="rotate(0,361.5,190.5)"/><circle cx="64.5" cy="199.5" r="4.5" transform="rotate(0,64.5,199.5)"/><circle cx="91.5" cy="199.5" r="4.5" transform="rotate(0,91.5,199.5)"/><rect x="105" y="195" width="9" height="9" transform="rotate(0,109.5,199.5)"/><rect x="132" y="195" width="9" height="9" transform="rotate(0,136.5,199.5)"/><path d="M 141 195v 9h 9v -4.5a 4.5 4.5, 0, 0, 0, -4.5 -4.5" transform="rotate(0,145.5,199.5)"/><path d="M 159 195v 9h 4.5a 4.5 4.5, 0, 0, 0, 0 -9" transform="rotate(180,163.5,199.5)"/><path d="M 168 195v 9h 4.5a 4.5 4.5, 0, 0, 0, 0 -9" transform="rotate(0,172.5,199.5)"/><rect x="213" y="195" width="9" height="9" transform="rotate(0,217.5,199.5)"/><path d="M 231 195v 9h 9v -4.5a 4.5 4.5, 0, 0, 0, -4.5 -4.5" transform="rotate(-90,235.5,199.5)"/><path d="M 240 195v 9h 4.5a 4.5 4.5, 0, 0, 0, 0 -9" transform="rotate(0,244.5,199.5)"/><path d="M 267 195v 9h 4.5a 4.5 4.5, 0, 0, 0, 0 -9" transform="rotate(180,271.5,199.5)"/><path d="M 276 195v 9h 9v -4.5a 4.5 4.5, 0, 0, 0, -4.5 -4.5" transform="rotate(0,280.5,199.5)"/><path d="M 303 195v 9h 4.5a 4.5 4.5, 0, 0, 0, 0 -9" transform="rotate(-90,307.5,199.5)"/><path d="M 339 195v 9h 9v -4.5a 4.5 4.5, 0, 0, 0, -4.5 -4.5" transform="rotate(180,343.5,199.5)"/><rect x="348" y="195" width="9" height="9" transform="rotate(0,352.5,199.5)"/><path d="M 357 195v 9h 9v -4.5a 4.5 4.5, 0, 0, 0, -4.5 -4.5" transform="rotate(90,361.5,199.5)"/><circle cx="55.5" cy="208.5" r="4.5" transform="rotate(0,55.5,208.5)"/><circle cx="73.5" cy="208.5" r="4.5" transform="rotate(0,73.5,208.5)"/><path d="M 96 204v 9h 4.5a 4.5 4.5, 0, 0, 0, 0 -9" transform="rotate(180,100.5,208.5)"/><path d="M 105 204v 9h 9v -4.5a 4.5 4.5, 0, 0, 0, -4.5 -4.5" transform="rotate(90,109.5,208.5)"/><path d="M 132 204v 9h 9v -4.5a 4.5 4.5, 0, 0, 0, -4.5 -4.5" transform="rotate(180,136.5,208.5)"/><rect x="141" y="204" width="9" height="9" transform="rotate(0,145.5,208.5)"/><circle cx="190.5" cy="208.5" r="4.5" transform="rotate(0,190.5,208.5)"/><path d="M 204 204v 9h 4.5a 4.5 4.5, 0, 0, 0, 0 -9" transform="rotate(180,208.5,208.5)"/><rect x="213" y="204" width="9" height="9" transform="rotate(0,217.5,208.5)"/><rect x="222" y="204" width="9" height="9" transform="rotate(0,226.5,208.5)"/><path d="M 231 204v 9h 9v -4.5a 4.5 4.5, 0, 0, 0, -4.5 -4.5" transform="rotate(90,235.5,208.5)"/><path d="M 249 204v 9h 4.5a 4.5 4.5, 0, 0, 0, 0 -9" transform="rotate(-90,253.5,208.5)"/><rect x="276" y="204" width="9" height="9" transform="rotate(0,280.5,208.5)"/><path d="M 294 204v 9h 4.5a 4.5 4.5, 0, 0, 0, 0 -9" transform="rotate(180,298.5,208.5)"/><rect x="303" y="204" width="9" height="9" transform="rotate(0,307.5,208.5)"/><circle cx="334.5" cy="208.5" r="4.5" transform="rotate(0,334.5,208.5)"/><path d="M 348 204v 9h 4.5a 4.5 4.5, 0, 0, 0, 0 -9" transform="rotate(90,352.5,208.5)"/><path d="M 42 213v 9h 4.5a 4.5 4.5, 0, 0, 0, 0 -9" transform="rotate(-90,46.5,217.5)"/><path d="M 78 213v 9h 9v -4.5a 4.5 4.5, 0, 0, 0, -4.5 -4.5" transform="rotate(-90,82.5,217.5)"/><path d="M 87 213v 9h 4.5a 4.5 4.5, 0, 0, 0, 0 -9" transform="rotate(0,91.5,217.5)"/><rect x="141" y="213" width="9" height="9" transform="rotate(0,145.5,217.5)"/><path d="M 159 213v 9h 9v -4.5a 4.5 4.5, 0, 0, 0, -4.5 -4.5" transform="rotate(-90,163.5,217.5)"/><rect x="168" y="213" width="9" height="9" transform="rotate(0,172.5,217.5)"/><path d="M 177 213v 9h 9v -4.5a 4.5 4.5, 0, 0, 0, -4.5 -4.5" transform="rotate(0,181.5,217.5)"/><rect x="222" y="213" width="9" height="9" transform="rotate(0,226.5,217.5)"/><path d="M 240 213v 9h 9v -4.5a 4.5 4.5, 0, 0, 0, -4.5 -4.5" transform="rotate(-90,244.5,217.5)"/><rect x="249" y="213" width="9" height="9" transform="rotate(0,253.5,217.5)"/><path d="M 258 213v 9h 9v -4.5a 4.5 4.5, 0, 0, 0, -4.5 -4.5" transform="rotate(0,262.5,217.5)"/><path d="M 276 213v 9h 9v -4.5a 4.5 4.5, 0, 0, 0, -4.5 -4.5" transform="rotate(180,280.5,217.5)"/><path d="M 285 213v 9h 4.5a 4.5 4.5, 0, 0, 0, 0 -9" transform="rotate(0,289.5,217.5)"/><path d="M 303 213v 9h 9v -4.5a 4.5 4.5, 0, 0, 0, -4.5 -4.5" transform="rotate(180,307.5,217.5)"/><rect x="312" y="213" width="9" height="9" transform="rotate(0,316.5,217.5)"/><path d="M 321 213v 9h 4.5a 4.5 4.5, 0, 0, 0, 0 -9" transform="rotate(0,325.5,217.5)"/><circle cx="343.5" cy="217.5" r="4.5" transform="rotate(0,343.5,217.5)"/><path d="M 33 222v 9h 9v -4.5a 4.5 4.5, 0, 0, 0, -4.5 -4.5" transform="rotate(-90,37.5,226.5)"/><rect x="42" y="222" width="9" height="9" transform="rotate(0,46.5,226.5)"/><path d="M 78 222v 9h 4.5a 4.5 4.5, 0, 0, 0, 0 -9" transform="rotate(90,82.5,226.5)"/><path d="M 96 222v 9h 4.5a 4.5 4.5, 0, 0, 0, 0 -9" transform="rotate(180,100.5,226.5)"/><rect x="105" y="222" width="9" height="9" transform="rotate(0,109.5,226.5)"/><path d="M 114 222v 9h 9v -4.5a 4.5 4.5, 0, 0, 0, -4.5 -4.5" transform="rotate(0,118.5,226.5)"/><path d="M 132 222v 9h 9v -4.5a 4.5 4.5, 0, 0, 0, -4.5 -4.5" transform="rotate(-90,136.5,226.5)"/><rect x="141" y="222" width="9" height="9" transform="rotate(0,145.5,226.5)"/><rect x="150" y="222" width="9" height="9" transform="rotate(0,154.5,226.5)"/><rect x="159" y="222" width="9" height="9" transform="rotate(0,163.5,226.5)"/><rect x="168" y="222" width="9" height="9" transform="rotate(0,172.5,226.5)"/><rect x="177" y="222" width="9" height="9" transform="rotate(0,181.5,226.5)"/><path d="M 186 222v 9h 4.5a 4.5 4.5, 0, 0, 0, 0 -9" transform="rotate(0,190.5,226.5)"/><circle cx="208.5" cy="226.5" r="4.5" transform="rotate(0,208.5,226.5)"/><path d="M 222 222v 9h 4.5a 4.5 4.5, 0, 0, 0, 0 -9" transform="rotate(90,226.5,226.5)"/><rect x="240" y="222" width="9" height="9" transform="rotate(0,244.5,226.5)"/><rect x="249" y="222" width="9" height="9" transform="rotate(0,253.5,226.5)"/><rect x="258" y="222" width="9" height="9" transform="rotate(0,262.5,226.5)"/><circle cx="334.5" cy="226.5" r="4.5" transform="rotate(0,334.5,226.5)"/><path d="M 33 231v 9h 9v -4.5a 4.5 4.5, 0, 0, 0, -4.5 -4.5" transform="rotate(180,37.5,235.5)"/><rect x="42" y="231" width="9" height="9" transform="rotate(0,46.5,235.5)"/><rect x="51" y="231" width="9" height="9" transform="rotate(0,55.5,235.5)"/><path d="M 60 231v 9h 9v -4.5a 4.5 4.5, 0, 0, 0, -4.5 -4.5" transform="rotate(0,64.5,235.5)"/><circle cx="91.5" cy="235.5" r="4.5" transform="rotate(0,91.5,235.5)"/><rect x="105" y="231" width="9" height="9" transform="rotate(0,109.5,235.5)"/><path d="M 114 231v 9h 9v -4.5a 4.5 4.5, 0, 0, 0, -4.5 -4.5" transform="rotate(90,118.5,235.5)"/><path d="M 132 231v 9h 9v -4.5a 4.5 4.5, 0, 0, 0, -4.5 -4.5" transform="rotate(180,136.5,235.5)"/><rect x="141" y="231" width="9" height="9" transform="rotate(0,145.5,235.5)"/><path d="M 150 231v 9h 9v -4.5a 4.5 4.5, 0, 0, 0, -4.5 -4.5" transform="rotate(90,154.5,235.5)"/><circle cx="199.5" cy="235.5" r="4.5" transform="rotate(0,199.5,235.5)"/><path d="M 213 231v 9h 4.5a 4.5 4.5, 0, 0, 0, 0 -9" transform="rotate(-90,217.5,235.5)"/><rect x="240" y="231" width="9" height="9" transform="rotate(0,244.5,235.5)"/><path d="M 258 231v 9h 4.5a 4.5 4.5, 0, 0, 0, 0 -9" transform="rotate(90,262.5,235.5)"/><path d="M 276 231v 9h 4.5a 4.5 4.5, 0, 0, 0, 0 -9" transform="rotate(-90,280.5,235.5)"/><path d="M 303 231v 9h 4.5a 4.5 4.5, 0, 0, 0, 0 -9" transform="rotate(180,307.5,235.5)"/><rect x="312" y="231" width="9" height="9" transform="rotate(0,316.5,235.5)"/><path d="M 321 231v 9h 4.5a 4.5 4.5, 0, 0, 0, 0 -9" transform="rotate(0,325.5,235.5)"/><path d="M 339 231v 9h 4.5a 4.5 4.5, 0, 0, 0, 0 -9" transform="rotate(180,343.5,235.5)"/><rect x="348" y="231" width="9" height="9" transform="rotate(0,352.5,235.5)"/><path d="M 357 231v 9h 9v -4.5a 4.5 4.5, 0, 0, 0, -4.5 -4.5" transform="rotate(0,361.5,235.5)"/><rect x="42" y="240" width="9" height="9" transform="rotate(0,46.5,244.5)"/><rect x="51" y="240" width="9" height="9" transform="rotate(0,55.5,244.5)"/><rect x="60" y="240" width="9" height="9" transform="rotate(0,64.5,244.5)"/><path d="M 69 240v 9h 9v -4.5a 4.5 4.5, 0, 0, 0, -4.5 -4.5" transform="rotate(0,73.5,244.5)"/><path d="M 96 240v 9h 4.5a 4.5 4.5, 0, 0, 0, 0 -9" transform="rotate(180,100.5,244.5)"/><rect x="105" y="240" width="9" height="9" transform="rotate(0,109.5,244.5)"/><circle cx="127.5" cy="244.5" r="4.5" transform="rotate(0,127.5,244.5)"/><path d="M 141 240v 9h 4.5a 4.5 4.5, 0, 0, 0, 0 -9" transform="rotate(90,145.5,244.5)"/><path d="M 177 240v 9h 4.5a 4.5 4.5, 0, 0, 0, 0 -9" transform="rotate(180,181.5,244.5)"/><path d="M 186 240v 9h 9v -4.5a 4.5 4.5, 0, 0, 0, -4.5 -4.5" transform="rotate(0,190.5,244.5)"/><path d="M 213 240v 9h 4.5a 4.5 4.5, 0, 0, 0, 0 -9" transform="rotate(90,217.5,244.5)"/><path d="M 231 240v 9h 4.5a 4.5 4.5, 0, 0, 0, 0 -9" transform="rotate(180,235.5,244.5)"/><rect x="240" y="240" width="9" height="9" transform="rotate(0,244.5,244.5)"/><path d="M 249 240v 9h 9v -4.5a 4.5 4.5, 0, 0, 0, -4.5 -4.5" transform="rotate(0,253.5,244.5)"/><path d="M 267 240v 9h 4.5a 4.5 4.5, 0, 0, 0, 0 -9" transform="rotate(180,271.5,244.5)"/><rect x="276" y="240" width="9" height="9" transform="rotate(0,280.5,244.5)"/><path d="M 312 240v 9h 4.5a 4.5 4.5, 0, 0, 0, 0 -9" transform="rotate(90,316.5,244.5)"/><rect x="348" y="240" width="9" height="9" transform="rotate(0,352.5,244.5)"/><rect x="357" y="240" width="9" height="9" transform="rotate(0,361.5,244.5)"/><path d="M 42 249v 9h 9v -4.5a 4.5 4.5, 0, 0, 0, -4.5 -4.5" transform="rotate(180,46.5,253.5)"/><rect x="51" y="249" width="9" height="9" transform="rotate(0,55.5,253.5)"/><rect x="60" y="249" width="9" height="9" transform="rotate(0,64.5,253.5)"/><rect x="69" y="249" width="9" height="9" transform="rotate(0,73.5,253.5)"/><circle cx="91.5" cy="253.5" r="4.5" transform="rotate(0,91.5,253.5)"/><rect x="105" y="249" width="9" height="9" transform="rotate(0,109.5,253.5)"/><path d="M 114 249v 9h 4.5a 4.5 4.5, 0, 0, 0, 0 -9" transform="rotate(0,118.5,253.5)"/><path d="M 150 249v 9h 4.5a 4.5 4.5, 0, 0, 0, 0 -9" transform="rotate(-90,154.5,253.5)"/><path d="M 186 249v 9h 9v -4.5a 4.5 4.5, 0, 0, 0, -4.5 -4.5" transform="rotate(180,190.5,253.5)"/><rect x="195" y="249" width="9" height="9" transform="rotate(0,199.5,253.5)"/><path d="M 204 249v 9h 9v -4.5a 4.5 4.5, 0, 0, 0, -4.5 -4.5" transform="rotate(0,208.5,253.5)"/><circle cx="226.5" cy="253.5" r="4.5" transform="rotate(0,226.5,253.5)"/><path d="M 249 249v 9h 9v -4.5a 4.5 4.5, 0, 0, 0, -4.5 -4.5" transform="rotate(180,253.5,253.5)"/><path d="M 258 249v 9h 4.5a 4.5 4.5, 0, 0, 0, 0 -9" transform="rotate(0,262.5,253.5)"/><path d="M 276 249v 9h 9v -4.5a 4.5 4.5, 0, 0, 0, -4.5 -4.5" transform="rotate(180,280.5,253.5)"/><path d="M 285 249v 9h 4.5a 4.5 4.5, 0, 0, 0, 0 -9" transform="rotate(0,289.5,253.5)"/><circle cx="307.5" cy="253.5" r="4.5" transform="rotate(0,307.5,253.5)"/><path d="M 321 249v 9h 4.5a 4.5 4.5, 0, 0, 0, 0 -9" transform="rotate(180,325.5,253.5)"/><rect x="330" y="249" width="9" height="9" transform="rotate(0,334.5,253.5)"/><rect x="339" y="249" width="9" height="9" transform="rotate(0,343.5,253.5)"/><rect x="348" y="249" width="9" height="9" transform="rotate(0,352.5,253.5)"/><path d="M 357 249v 9h 9v -4.5a 4.5 4.5, 0, 0, 0, -4.5 -4.5" transform="rotate(90,361.5,253.5)"/><path d="M 33 258v 9h 4.5a 4.5 4.5, 0, 0, 0, 0 -9" transform="rotate(-90,37.5,262.5)"/><rect x="51" y="258" width="9" height="9" transform="rotate(0,55.5,262.5)"/><path d="M 69 258v 9h 4.5a 4.5 4.5, 0, 0, 0, 0 -9" transform="rotate(90,73.5,262.5)"/><path d="M 96 258v 9h 4.5a 4.5 4.5, 0, 0, 0, 0 -9" transform="rotate(180,100.5,262.5)"/><rect x="105" y="258" width="9" height="9" transform="rotate(0,109.5,262.5)"/><path d="M 123 258v 9h 4.5a 4.5 4.5, 0, 0, 0, 0 -9" transform="rotate(-90,127.5,262.5)"/><path d="M 141 258v 9h 4.5a 4.5 4.5, 0, 0, 0, 0 -9" transform="rotate(180,145.5,262.5)"/><rect x="150" y="258" width="9" height="9" transform="rotate(0,154.5,262.5)"/><circle cx="172.5" cy="262.5" r="4.5" transform="rotate(0,172.5,262.5)"/><path d="M 204 258v 9h 9v -4.5a 4.5 4.5, 0, 0, 0, -4.5 -4.5" transform="rotate(180,208.5,262.5)"/><path d="M 213 258v 9h 9v -4.5a 4.5 4.5, 0, 0, 0, -4.5 -4.5" transform="rotate(0,217.5,262.5)"/><circle cx="271.5" cy="262.5" r="4.5" transform="rotate(0,271.5,262.5)"/><circle cx="298.5" cy="262.5" r="4.5" transform="rotate(0,298.5,262.5)"/><rect x="33" y="267" width="9" height="9" transform="rotate(0,37.5,271.5)"/><rect x="51" y="267" width="9" height="9" transform="rotate(0,55.5,271.5)"/><path d="M 60 267v 9h 4.5a 4.5 4.5, 0, 0, 0, 0 -9" transform="rotate(0,64.5,271.5)"/><path d="M 78 267v 9h 9v -4.5a 4.5 4.5, 0, 0, 0, -4.5 -4.5" transform="rotate(-90,82.5,271.5)"/><path d="M 87 267v 9h 4.5a 4.5 4.5, 0, 0, 0, 0 -9" transform="rotate(0,91.5,271.5)"/><rect x="105" y="267" width="9" height="9" transform="rotate(0,109.5,271.5)"/><rect x="123" y="267" width="9" height="9" transform="rotate(0,127.5,271.5)"/><rect x="150" y="267" width="9" height="9" transform="rotate(0,154.5,271.5)"/><path d="M 159 267v 9h 9v -4.5a 4.5 4.5, 0, 0, 0, -4.5 -4.5" transform="rotate(0,163.5,271.5)"/><circle cx="181.5" cy="271.5" r="4.5" transform="rotate(0,181.5,271.5)"/><circle cx="199.5" cy="271.5" r="4.5" transform="rotate(0,199.5,271.5)"/><path d="M 213 267v 9h 4.5a 4.5 4.5, 0, 0, 0, 0 -9" transform="rotate(90,217.5,271.5)"/><path d="M 240 267v 9h 9v -4.5a 4.5 4.5, 0, 0, 0, -4.5 -4.5" transform="rotate(-90,244.5,271.5)"/><rect x="249" y="267" width="9" height="9" transform="rotate(0,253.5,271.5)"/><path d="M 258 267v 9h 4.5a 4.5 4.5, 0, 0, 0, 0 -9" transform="rotate(0,262.5,271.5)"/><path d="M 276 267v 9h 4.5a 4.5 4.5, 0, 0, 0, 0 -9" transform="rotate(-90,280.5,271.5)"/><path d="M 303 267v 9h 4.5a 4.5 4.5, 0, 0, 0, 0 -9" transform="rotate(180,307.5,271.5)"/><rect x="312" y="267" width="9" height="9" transform="rotate(0,316.5,271.5)"/><rect x="321" y="267" width="9" height="9" transform="rotate(0,325.5,271.5)"/><path d="M 330 267v 9h 4.5a 4.5 4.5, 0, 0, 0, 0 -9" transform="rotate(0,334.5,271.5)"/><path d="M 357 267v 9h 4.5a 4.5 4.5, 0, 0, 0, 0 -9" transform="rotate(-90,361.5,271.5)"/><rect x="33" y="276" width="9" height="9" transform="rotate(0,37.5,280.5)"/><rect x="51" y="276" width="9" height="9" transform="rotate(0,55.5,280.5)"/><path d="M 69 276v 9h 9v -4.5a 4.5 4.5, 0, 0, 0, -4.5 -4.5" transform="rotate(-90,73.5,280.5)"/><rect x="78" y="276" width="9" height="9" transform="rotate(0,82.5,280.5)"/><path d="M 96 276v 9h 4.5a 4.5 4.5, 0, 0, 0, 0 -9" transform="rotate(180,100.5,280.5)"/><rect x="105" y="276" width="9" height="9" transform="rotate(0,109.5,280.5)"/><rect x="114" y="276" width="9" height="9" transform="rotate(0,118.5,280.5)"/><rect x="123" y="276" width="9" height="9" transform="rotate(0,127.5,280.5)"/><path d="M 132 276v 9h 9v -4.5a 4.5 4.5, 0, 0, 0, -4.5 -4.5" transform="rotate(0,136.5,280.5)"/><path d="M 150 276v 9h 9v -4.5a 4.5 4.5, 0, 0, 0, -4.5 -4.5" transform="rotate(180,154.5,280.5)"/><rect x="159" y="276" width="9" height="9" transform="rotate(0,163.5,280.5)"/><rect x="240" y="276" width="9" height="9" transform="rotate(0,244.5,280.5)"/><rect x="276" y="276" width="9" height="9" transform="rotate(0,280.5,280.5)"/><path d="M 294 276v 9h 4.5a 4.5 4.5, 0, 0, 0, 0 -9" transform="rotate(-90,298.5,280.5)"/><rect x="312" y="276" width="9" height="9" transform="rotate(0,316.5,280.5)"/><rect x="321" y="276" width="9" height="9" transform="rotate(0,325.5,280.5)"/><path d="M 348 276v 9h 4.5a 4.5 4.5, 0, 0, 0, 0 -9" transform="rotate(180,352.5,280.5)"/><rect x="357" y="276" width="9" height="9" transform="rotate(0,361.5,280.5)"/><path d="M 33 285v 9h 4.5a 4.5 4.5, 0, 0, 0, 0 -9" transform="rotate(90,37.5,289.5)"/><path d="M 51 285v 9h 9v -4.5a 4.5 4.5, 0, 0, 0, -4.5 -4.5" transform="rotate(180,55.5,289.5)"/><rect x="60" y="285" width="9" height="9" transform="rotate(0,64.5,289.5)"/><rect x="69" y="285" width="9" height="9" transform="rotate(0,73.5,289.5)"/><rect x="78" y="285" width="9" height="9" transform="rotate(0,82.5,289.5)"/><path d="M 87 285v 9h 4.5a 4.5 4.5, 0, 0, 0, 0 -9" transform="rotate(0,91.5,289.5)"/><rect x="114" y="285" width="9" height="9" transform="rotate(0,118.5,289.5)"/><rect x="123" y="285" width="9" height="9" transform="rotate(0,127.5,289.5)"/><path d="M 132 285v 9h 9v -4.5a 4.5 4.5, 0, 0, 0, -4.5 -4.5" transform="rotate(90,136.5,289.5)"/><path d="M 159 285v 9h 4.5a 4.5 4.5, 0, 0, 0, 0 -9" transform="rotate(90,163.5,289.5)"/><path d="M 177 285v 9h 4.5a 4.5 4.5, 0, 0, 0, 0 -9" transform="rotate(180,181.5,289.5)"/><path d="M 186 285v 9h 4.5a 4.5 4.5, 0, 0, 0, 0 -9" transform="rotate(0,190.5,289.5)"/><path d="M 222 285v 9h 4.5a 4.5 4.5, 0, 0, 0, 0 -9" transform="rotate(180,226.5,289.5)"/><rect x="231" y="285" width="9" height="9" transform="rotate(0,235.5,289.5)"/><rect x="240" y="285" width="9" height="9" transform="rotate(0,244.5,289.5)"/><path d="M 258 285v 9h 4.5a 4.5 4.5, 0, 0, 0, 0 -9" transform="rotate(-90,262.5,289.5)"/><rect x="276" y="285" width="9" height="9" transform="rotate(0,280.5,289.5)"/><rect x="285" y="285" width="9" height="9" transform="rotate(0,289.5,289.5)"/><rect x="294" y="285" width="9" height="9" transform="rotate(0,298.5,289.5)"/><rect x="303" y="285" width="9" height="9" transform="rotate(0,307.5,289.5)"/><rect x="312" y="285" width="9" height="9" transform="rotate(0,316.5,289.5)"/><rect x="321" y="285" width="9" height="9" transform="rotate(0,325.5,289.5)"/><rect x="330" y="285" width="9" height="9" transform="rotate(0,334.5,289.5)"/><path d="M 339 285v 9h 4.5a 4.5 4.5, 0, 0, 0, 0 -9" transform="rotate(0,343.5,289.5)"/><path d="M 357 285v 9h 4.5a 4.5 4.5, 0, 0, 0, 0 -9" transform="rotate(90,361.5,289.5)"/><path d="M 105 294v 9h 4.5a 4.5 4.5, 0, 0, 0, 0 -9" transform="rotate(180,109.5,298.5)"/><rect x="114" y="294" width="9" height="9" transform="rotate(0,118.5,298.5)"/><rect x="123" y="294" width="9" height="9" transform="rotate(0,127.5,298.5)"/><circle cx="154.5" cy="298.5" r="4.5" transform="rotate(0,154.5,298.5)"/><circle cx="172.5" cy="298.5" r="4.5" transform="rotate(0,172.5,298.5)"/><rect x="231" y="294" width="9" height="9" transform="rotate(0,235.5,298.5)"/><path d="M 240 294v 9h 9v -4.5a 4.5 4.5, 0, 0, 0, -4.5 -4.5" transform="rotate(90,244.5,298.5)"/><path d="M 258 294v 9h 9v -4.5a 4.5 4.5, 0, 0, 0, -4.5 -4.5" transform="rotate(180,262.5,298.5)"/><rect x="267" y="294" width="9" height="9" transform="rotate(0,271.5,298.5)"/><rect x="276" y="294" width="9" height="9" transform="rotate(0,280.5,298.5)"/><rect x="285" y="294" width="9" height="9" transform="rotate(0,289.5,298.5)"/><rect x="321" y="294" width="9" height="9" transform="rotate(0,325.5,298.5)"/><rect x="330" y="294" width="9" height="9" transform="rotate(0,334.5,298.5)"/><circle cx="352.5" cy="298.5" r="4.5" transform="rotate(0,352.5,298.5)"/><path d="M 123 303v 9h 4.5a 4.5 4.5, 0, 0, 0, 0 -9" transform="rotate(90,127.5,307.5)"/><circle cx="163.5" cy="307.5" r="4.5" transform="rotate(0,163.5,307.5)"/><path d="M 186 303v 9h 9v -4.5a 4.5 4.5, 0, 0, 0, -4.5 -4.5" transform="rotate(-90,190.5,307.5)"/><rect x="195" y="303" width="9" height="9" transform="rotate(0,199.5,307.5)"/><path d="M 204 303v 9h 4.5a 4.5 4.5, 0, 0, 0, 0 -9" transform="rotate(0,208.5,307.5)"/><path d="M 222 303v 9h 4.5a 4.5 4.5, 0, 0, 0, 0 -9" transform="rotate(180,226.5,307.5)"/><rect x="231" y="303" width="9" height="9" transform="rotate(0,235.5,307.5)"/><path d="M 267 303v 9h 4.5a 4.5 4.5, 0, 0, 0, 0 -9" transform="rotate(90,271.5,307.5)"/><rect x="285" y="303" width="9" height="9" transform="rotate(0,289.5,307.5)"/><circle cx="307.5" cy="307.5" r="4.5" transform="rotate(0,307.5,307.5)"/><rect x="321" y="303" width="9" height="9" transform="rotate(0,325.5,307.5)"/><rect x="330" y="303" width="9" height="9" transform="rotate(0,334.5,307.5)"/><path d="M 357 303v 9h 4.5a 4.5 4.5, 0, 0, 0, 0 -9" transform="rotate(-90,361.5,307.5)"/><circle cx="118.5" cy="316.5" r="4.5" transform="rotate(0,118.5,316.5)"/><path d="M 132 312v 9h 9v -4.5a 4.5 4.5, 0, 0, 0, -4.5 -4.5" transform="rotate(-90,136.5,316.5)"/><rect x="141" y="312" width="9" height="9" transform="rotate(0,145.5,316.5)"/><path d="M 150 312v 9h 4.5a 4.5 4.5, 0, 0, 0, 0 -9" transform="rotate(0,154.5,316.5)"/><rect x="186" y="312" width="9" height="9" transform="rotate(0,190.5,316.5)"/><path d="M 195 312v 9h 9v -4.5a 4.5 4.5, 0, 0, 0, -4.5 -4.5" transform="rotate(90,199.5,316.5)"/><path d="M 231 312v 9h 4.5a 4.5 4.5, 0, 0, 0, 0 -9" transform="rotate(90,235.5,316.5)"/><rect x="285" y="312" width="9" height="9" transform="rotate(0,289.5,316.5)"/><rect x="321" y="312" width="9" height="9" transform="rotate(0,325.5,316.5)"/><path d="M 330 312v 9h 9v -4.5a 4.5 4.5, 0, 0, 0, -4.5 -4.5" transform="rotate(90,334.5,316.5)"/><path d="M 348 312v 9h 4.5a 4.5 4.5, 0, 0, 0, 0 -9" transform="rotate(180,352.5,316.5)"/><rect x="357" y="312" width="9" height="9" transform="rotate(0,361.5,316.5)"/><path d="M 105 321v 9h 4.5a 4.5 4.5, 0, 0, 0, 0 -9" transform="rotate(-90,109.5,325.5)"/><path d="M 123 321v 9h 9v -4.5a 4.5 4.5, 0, 0, 0, -4.5 -4.5" transform="rotate(-90,127.5,325.5)"/><path d="M 132 321v 9h 9v -4.5a 4.5 4.5, 0, 0, 0, -4.5 -4.5" transform="rotate(90,136.5,325.5)"/><path d="M 168 321v 9h 4.5a 4.5 4.5, 0, 0, 0, 0 -9" transform="rotate(-90,172.5,325.5)"/><path d="M 186 321v 9h 4.5a 4.5 4.5, 0, 0, 0, 0 -9" transform="rotate(90,190.5,325.5)"/><circle cx="217.5" cy="325.5" r="4.5" transform="rotate(0,217.5,325.5)"/><path d="M 240 321v 9h 4.5a 4.5 4.5, 0, 0, 0, 0 -9" transform="rotate(180,244.5,325.5)"/><rect x="249" y="321" width="9" height="9" transform="rotate(0,253.5,325.5)"/><rect x="258" y="321" width="9" height="9" transform="rotate(0,262.5,325.5)"/><rect x="267" y="321" width="9" height="9" transform="rotate(0,271.5,325.5)"/><rect x="276" y="321" width="9" height="9" transform="rotate(0,280.5,325.5)"/><rect x="285" y="321" width="9" height="9" transform="rotate(0,289.5,325.5)"/><rect x="294" y="321" width="9" height="9" transform="rotate(0,298.5,325.5)"/><rect x="303" y="321" width="9" height="9" transform="rotate(0,307.5,325.5)"/><rect x="312" y="321" width="9" height="9" transform="rotate(0,316.5,325.5)"/><rect x="321" y="321" width="9" height="9" transform="rotate(0,325.5,325.5)"/><circle cx="343.5" cy="325.5" r="4.5" transform="rotate(0,343.5,325.5)"/><path d="M 357 321v 9h 4.5a 4.5 4.5, 0, 0, 0, 0 -9" transform="rotate(90,361.5,325.5)"/><rect x="105" y="330" width="9" height="9" transform="rotate(0,109.5,334.5)"/><rect x="123" y="330" width="9" height="9" transform="rotate(0,127.5,334.5)"/><path d="M 141 330v 9h 9v -4.5a 4.5 4.5, 0, 0, 0, -4.5 -4.5" transform="rotate(-90,145.5,334.5)"/><path d="M 150 330v 9h 9v -4.5a 4.5 4.5, 0, 0, 0, -4.5 -4.5" transform="rotate(0,154.5,334.5)"/><rect x="168" y="330" width="9" height="9" transform="rotate(0,172.5,334.5)"/><path d="M 177 330v 9h 4.5a 4.5 4.5, 0, 0, 0, 0 -9" transform="rotate(0,181.5,334.5)"/><circle cx="235.5" cy="334.5" r="4.5" transform="rotate(0,235.5,334.5)"/><rect x="249" y="330" width="9" height="9" transform="rotate(0,253.5,334.5)"/><rect x="276" y="330" width="9" height="9" transform="rotate(0,280.5,334.5)"/><path d="M 303 330v 9h 9v -4.5a 4.5 4.5, 0, 0, 0, -4.5 -4.5" transform="rotate(180,307.5,334.5)"/><rect x="312" y="330" width="9" height="9" transform="rotate(0,316.5,334.5)"/><rect x="321" y="330" width="9" height="9" transform="rotate(0,325.5,334.5)"/><path d="M 330 330v 9h 4.5a 4.5 4.5, 0, 0, 0, 0 -9" transform="rotate(0,334.5,334.5)"/><path d="M 105 339v 9h 9v -4.5a 4.5 4.5, 0, 0, 0, -4.5 -4.5" transform="rotate(180,109.5,343.5)"/><rect x="114" y="339" width="9" height="9" transform="rotate(0,118.5,343.5)"/><rect x="123" y="339" width="9" height="9" transform="rotate(0,127.5,343.5)"/><rect x="132" y="339" width="9" height="9" transform="rotate(0,136.5,343.5)"/><rect x="141" y="339" width="9" height="9" transform="rotate(0,145.5,343.5)"/><rect x="150" y="339" width="9" height="9" transform="rotate(0,154.5,343.5)"/><rect x="159" y="339" width="9" height="9" transform="rotate(0,163.5,343.5)"/><rect x="168" y="339" width="9" height="9" transform="rotate(0,172.5,343.5)"/><path d="M 186 339v 9h 9v -4.5a 4.5 4.5, 0, 0, 0, -4.5 -4.5" transform="rotate(-90,190.5,343.5)"/><path d="M 195 339v 9h 9v -4.5a 4.5 4.5, 0, 0, 0, -4.5 -4.5" transform="rotate(0,199.5,343.5)"/><circle cx="217.5" cy="343.5" r="4.5" transform="rotate(0,217.5,343.5)"/><rect x="249" y="339" width="9" height="9" transform="rotate(0,253.5,343.5)"/><path d="M 276 339v 9h 4.5a 4.5 4.5, 0, 0, 0, 0 -9" transform="rotate(90,280.5,343.5)"/><path d="M 294 339v 9h 4.5a 4.5 4.5, 0, 0, 0, 0 -9" transform="rotate(-90,298.5,343.5)"/><rect x="312" y="339" width="9" height="9" transform="rotate(0,316.5,343.5)"/><circle cx="343.5" cy="343.5" r="4.5" transform="rotate(0,343.5,343.5)"/><path d="M 357 339v 9h 4.5a 4.5 4.5, 0, 0, 0, 0 -9" transform="rotate(-90,361.5,343.5)"/><path d="M 123 348v 9h 9v -4.5a 4.5 4.5, 0, 0, 0, -4.5 -4.5" transform="rotate(180,127.5,352.5)"/><path d="M 132 348v 9h 9v -4.5a 4.5 4.5, 0, 0, 0, -4.5 -4.5" transform="rotate(90,136.5,352.5)"/><path d="M 150 348v 9h 4.5a 4.5 4.5, 0, 0, 0, 0 -9" transform="rotate(90,154.5,352.5)"/><path d="M 168 348v 9h 9v -4.5a 4.5 4.5, 0, 0, 0, -4.5 -4.5" transform="rotate(180,172.5,352.5)"/><rect x="177" y="348" width="9" height="9" transform="rotate(0,181.5,352.5)"/><rect x="186" y="348" width="9" height="9" transform="rotate(0,190.5,352.5)"/><rect x="195" y="348" width="9" height="9" transform="rotate(0,199.5,352.5)"/><path d="M 204 348v 9h 4.5a 4.5 4.5, 0, 0, 0, 0 -9" transform="rotate(0,208.5,352.5)"/><rect x="249" y="348" width="9" height="9" transform="rotate(0,253.5,352.5)"/><path d="M 285 348v 9h 4.5a 4.5 4.5, 0, 0, 0, 0 -9" transform="rotate(180,289.5,352.5)"/><path d="M 294 348v 9h 9v -4.5a 4.5 4.5, 0, 0, 0, -4.5 -4.5" transform="rotate(90,298.5,352.5)"/><rect x="312" y="348" width="9" height="9" transform="rotate(0,316.5,352.5)"/><rect x="321" y="348" width="9" height="9" transform="rotate(0,325.5,352.5)"/><path d="M 330 348v 9h 4.5a 4.5 4.5, 0, 0, 0, 0 -9" transform="rotate(0,334.5,352.5)"/><rect x="357" y="348" width="9" height="9" transform="rotate(0,361.5,352.5)"/><circle cx="118.5" cy="361.5" r="4.5" transform="rotate(0,118.5,361.5)"/><circle cx="145.5" cy="361.5" r="4.5" transform="rotate(0,145.5,361.5)"/><path d="M 177 357v 9h 9v -4.5a 4.5 4.5, 0, 0, 0, -4.5 -4.5" transform="rotate(180,181.5,361.5)"/><path d="M 186 357v 9h 9v -4.5a 4.5 4.5, 0, 0, 0, -4.5 -4.5" transform="rotate(90,190.5,361.5)"/><circle cx="217.5" cy="361.5" r="4.5" transform="rotate(0,217.5,361.5)"/><circle cx="235.5" cy="361.5" r="4.5" transform="rotate(0,235.5,361.5)"/><path d="M 249 357v 9h 4.5a 4.5 4.5, 0, 0, 0, 0 -9" transform="rotate(90,253.5,361.5)"/><path d="M 267 357v 9h 4.5a 4.5 4.5, 0, 0, 0, 0 -9" transform="rotate(180,271.5,361.5)"/><path d="M 276 357v 9h 4.5a 4.5 4.5, 0, 0, 0, 0 -9" transform="rotate(0,280.5,361.5)"/><path d="M 303 357v 9h 4.5a 4.5 4.5, 0, 0, 0, 0 -9" transform="rotate(180,307.5,361.5)"/><rect x="312" y="357" width="9" height="9" transform="rotate(0,316.5,361.5)"/><path d="M 321 357v 9h 9v -4.5a 4.5 4.5, 0, 0, 0, -4.5 -4.5" transform="rotate(90,325.5,361.5)"/><path d="M 339 357v 9h 4.5a 4.5 4.5, 0, 0, 0, 0 -9" transform="rotate(180,343.5,361.5)"/><rect x="348" y="357" width="9" height="9" transform="rotate(0,352.5,361.5)"/><path d="M 357 357v 9h 9v -4.5a 4.5 4.5, 0, 0, 0, -4.5 -4.5" transform="rotate(90,361.5,361.5)"/></clipPath><clipPath id="clip-path-corners-square-color-0-0-0"><path clip-rule="evenodd" d="M 33 55.5v 18a 22.5 22.5, 0, 0, 0, 22.5 22.5h 18a 22.5 22.5, 0, 0, 0, 22.5 -22.5v -18a 22.5 22.5, 0, 0, 0, -22.5 -22.5h -18a 22.5 22.5, 0, 0, 0, -22.5 22.5M 55.5 42h 18a 13.5 13.5, 0, 0, 1, 13.5 13.5v 18a 13.5 13.5, 0, 0, 1, -13.5 13.5h -18a 13.5 13.5, 0, 0, 1, -13.5 -13.5v -18a 13.5 13.5, 0, 0, 1, 13.5 -13.5" transform="rotate(0,64.5,64.5)"/></clipPath><clipPath id="clip-path-corners-dot-color-0-0-0"><circle cx="64.5" cy="64.5" r="13.5" transform="rotate(0,64.5,64.5)"/></clipPath><clipPath id="clip-path-corners-square-color-1-0-0"><path clip-rule="evenodd" d="M 303 55.5v 18a 22.5 22.5, 0, 0, 0, 22.5 22.5h 18a 22.5 22.5, 0, 0, 0, 22.5 -22.5v -18a 22.5 22.5, 0, 0, 0, -22.5 -22.5h -18a 22.5 22.5, 0, 0, 0, -22.5 22.5M 325.5 42h 18a 13.5 13.5, 0, 0, 1, 13.5 13.5v 18a 13.5 13.5, 0, 0, 1, -13.5 13.5h -18a 13.5 13.5, 0, 0, 1, -13.5 -13.5v -18a 13.5 13.5, 0, 0, 1, 13.5 -13.5" transform="rotate(90,334.5,64.5)"/></clipPath><clipPath id="clip-path-corners-dot-color-1-0-0"><circle cx="334.5" cy="64.5" r="13.5" transform="rotate(90,334.5,64.5)"/></clipPath><clipPath id="clip-path-corners-square-color-0-1-0"><path clip-rule="evenodd" d="M 33 325.5v 18a 22.5 22.5, 0, 0, 0, 22.5 22.5h 18a 22.5 22.5, 0, 0, 0, 22.5 -22.5v -18a 22.5 22.5, 0, 0, 0, -22.5 -22.5h -18a 22.5 22.5, 0, 0, 0, -22.5 22.5M 55.5 312h 18a 13.5 13.5, 0, 0, 1, 13.5 13.5v 18a 13.5 13.5, 0, 0, 1, -13.5 13.5h -18a 13.5 13.5, 0, 0, 1, -13.5 -13.5v -18a 13.5 13.5, 0, 0, 1, 13.5 -13.5" transform="rotate(-90,64.5,334.5)"/></clipPath><clipPath id="clip-path-corners-dot-color-0-1-0"><circle cx="64.5" cy="334.5" r="13.5" transform="rotate(-90,64.5,334.5)"/></clipPath></defs><rect x="0" y="0" height="400" width="400" clip-path="url('#clip-path-background-color-0')" fill="#ffffff"/><rect x="0" y="0" height="400" width="400" clip-path="url('#clip-path-dot-color-0')" fill="#1a6b8a"/><rect x="33" y="33" height="63" width="63" clip-path="url('#clip-path-corners-square-color-0-0-0')" fill="#0d4f6b"/><rect x="51" y="51" height="27" width="27" clip-path="url('#clip-path-corners-dot-color-0-0-0')" fill="#0d4f6b"/><rect x="303" y="33" height="63" width="63" clip-path="url('#clip-path-corners-square-color-1-0-0')" fill="#0d4f6b"/><rect x="321" y="51" height="27" width="27" clip-path="url('#clip-path-corners-dot-color-1-0-0')" fill="#0d4f6b"/><rect x="33" y="303" height="63" width="63" clip-path="url('#clip-path-corners-square-color-0-1-0')" fill="#0d4f6b"/><rect x="51" y="321" height="27" width="27" clip-path="url('#clip-path-corners-dot-color-0-1-0')" fill="#0d4f6b"/></svg>