<?xml version="1.0" standalone="no"?>
<svg xmlns="http://www.w3.org/2000/svg" width="400" height="400" xmlns:xlink="http://www.w3.org/1999/xlink" viewBox="0 0 400 400"><defs><clipPath id="clip-path-background-color-1"><rect x="0" y="0" width="400" height="400"/></clipPath><clipPath id="clip-path-dot-color-1"><circle cx="109.5" cy="37.5" r="4.5" transform="rotate(0,109.5,37.5)"/><circle cx="127.5" cy="37.5" r="4.5" transform="rotate(0,127.5,37.5)"/><circle cx="136.5" cy="37.5" r="4.5" transform="rotate(0,136.5,37.5)"/><circle cx="145.5" cy="37.5" r="4.5" transform="rotate(0,145.5,37.5)"/><circle cx="172.5" cy="37.5" r="4.5" transform="rotate(0,172.5,37.5)"/><circle cx="181.5" cy="37.5" r="4.5" transform="rotate(0,181.5,37.5)"/><circle cx="208.5" cy="37.5" r="4.5" transform="rotate(0,208.5,37.5)"/><circle cx="217.5" cy="37.5" r="4.5" transform="rotate(0,217.5,37.5)"/><circle cx="226.5" cy="37.5" r="4.5" transform="rotate(0,226.5,37.5)"/><circle cx="244.5" cy="37.5" r="4.5" transform="rotate(0,244.5,37.5)"/><circle cx="253.5" cy="37.5" r="4.5" transform="rotate(0,253.5,37.5)"/><circle cx="271.5" cy="37.5" r="4.5" transform="rotate(0,271.5,37.5)"/><circle cx="109.5" cy="46.5" r="4.5" transform="rotate(0,109.5,46.5)"/><circle cx="118.5" cy="46.5" r="4.5" transform="rotate(0,118.5,46.5)"/><circle cx="127.5" cy="46.5" r="4.5" transform="rotate(0,127.5,46.5)"/><circle cx="136.5" cy="46.5" r="4.5" transform="rotate(0,136.5,46.5)"/><circle cx="145.5" cy="46.5" r="4.5" transform="rotate(0,145.5,46.5)"/><circle cx="154.5" cy="46.5" r="4.5" transform="rotate(0,154.5,46.5)"/><circle cx="163.5" cy="46.5" r="4.5" transform="rotate(0,163.5,46.5)"/><circle cx="172.5" cy="46.5" r="4.5" transform="rotate(0,172.5,46.5)"/><circle cx="181.5" cy="46.5" r="4.5" transform="rotate(0,181.5,46.5)"/><circle cx="190.5" cy="46.5" r="4.5" transform="rotate(0,190.5,46.5)"/><circle cx="199.5" cy="46.5" r="4.5" transform="rotate(0,199.5,46.5)"/><circle cx="208.5" cy="46.5" r="4.5" transform="rotate(0,208.5,46.5)"/><circle cx="253.5" cy="46.5" r="4.5" transform="rotate(0,253.5,46.5)"/><circle cx="271.5" cy="46.5" r="4.5" transform="rotate(0,271.5,46.5)"/><circle cx="280.5" cy="46.5" r="4.5" transform="rotate(0,280.5,46.5)"/><circle cx="109.5" cy="55.5" r="4.5" transform="rotate(0,109.5,55.5)"/><circle cx="127.5" cy="55.5" r="4.5" transform="rotate(0,127.5,55.5)"/><circle cx="154.5" cy="55.5" r="4.5" transform="rotate(0,154.5,55.5)"/><circle cx="163.5" cy="55.5" r="4.5" transform="rotate(0,163.5,55.5)"/><circle cx="172.5" cy="55.5" r="4.5" transform="rotate(0,172.5,55.5)"/><circle cx="181.5" cy="55.5" r="4.5" transform="rotate(0,181.5,55.5)"/><circle cx="226.5" cy="55.5" r="4.5" transform="rotate(0,226.5,55.5)"/><circle cx="235.5" cy="55.5" r="4.5" transform="rotate(0,235.5,55.5)"/><circle cx="253.5" cy="55.5" r="4.5" transform="rotate(0,253.5,55.5)"/><circle cx="271.5" cy="55.5" r="4.5" transform="rotate(0,271.5,55.5)"/><circle cx="280.5" cy="55.5" r="4.5" transform="rotate(0,280.5,55.5)"/><circle cx="118.5" cy="64.5" r="4.5" transform="rotate(0,118.5,64.5)"/><circle cx="127.5" cy="64.5" r="4.5" transform="rotate(0,127.5,64.5)"/><circle cx="136.5" cy="64.5" r="4.5" transform="rotate(0,136.5,64.5)"/><circle cx="154.5" cy="64.5" r="4.5" transform="rotate(0,154.5,64.5)"/><circle cx="163.5" cy="64.5" r="4.5" transform="rotate(0,163.5,64.5)"/><circle cx="172.5" cy="64.5" r="4.5" transform="rotate(0,172.5,64.5)"/><circle cx="190.5" cy="64.5" r="4.5" transform="rotate(0,190.5,64.5)"/><circle cx="208.5" cy="64.5" r="4.5" transform="rotate(0,208.5,64.5)"/><circle cx="217.5" cy="64.5" r="4.5" transform="rotate(0,217.5,64.5)"/><circle cx="244.5" cy="64.5" r="4.5" transform="rotate(0,244.5,64.5)"/><circle cx="262.5" cy="64.5" r="4.5" transform="rotate(0,262.5,64.5)"/><circle cx="271.5" cy="64.5" r="4.5" transform="rotate(0,271.5,64.5)"/><circle cx="280.5" cy="64.5" r="4.5" transform="rotate(0,280.5,64.5)"/><circle cx="289.5" cy="64.5" r="4.5" transform="rotate(0,289.5,64.5)"/><circle cx="154.5" cy="73.5" r="4.5" transform="rotate(0,154.5,73.5)"/><circle cx="181.5" cy="73.5" r="4.5" transform="rotate(0,181.5,73.5)"/><circle cx="217.5" cy="73.5" r="4.5" transform="rotate(0,217.5,73.5)"/><circle cx="235.5" cy="73.5" r="4.5" transform="rotate(0,235.5,73.5)"/><circle cx="244.5" cy="73.5" r="4.5" transform="rotate(0,244.5,73.5)"/><circle cx="253.5" cy="73.5" r="4.5" transform="rotate(0,253.5,73.5)"/><circle cx="109.5" cy="82.5" r="4.5" transform="rotate(0,109.5,82.5)"/><circle cx="127.5" cy="82.5" r="4.5" transform="rotate(0,127.5,82.5)"/><circle cx="136.5" cy="82.5" r="4.5" transform="rotate(0,136.5,82.5)"/><circle cx="154.5" cy="82.5" r="4.5" transform="rotate(0,154.5,82.5)"/><circle cx="163.5" cy="82.5" r="4.5" transform="rotate(0,163.5,82.5)"/><circle cx="181.5" cy="82.5" r="4.5" transform="rotate(0,181.5,82.5)"/><circle cx="208.5" cy="82.5" r="4.5" transform="rotate(0,208.5,82.5)"/><circle cx="217.5" cy="82.5" r="4.5" transform="rotate(0,217.5,82.5)"/><circle cx="244.5" cy="82.5" r="4.5" transform="rotate(0,244.5,82.5)"/><circle cx="253.5" cy="82.5" r="4.5" transform="rotate(0,253.5,82.5)"/><circle cx="262.5" cy="82.5" r="4.5" transform="rotate(0,262.5,82.5)"/><circle cx="271.5" cy="82.5" r="4.5" transform="rotate(0,271.5,82.5)"/><circle cx="280.5" cy="82.5" r="4.5" transform="rotate(0,280.5,82.5)"/><circle cx="109.5" cy="91.5" r="4.5" transform="rotate(0,109.5,91.5)"/><circle cx="127.5" cy="91.5" r="4.5" transform="rotate(0,127.5,91.5)"/><circle cx="145.5" cy="91.5" r="4.5" transform="rotate(0,145.5,91.5)"/><circle cx="163.5" cy="91.5" r="4.5" transform="rotate(0,163.5,91.5)"/><circle cx="181.5" cy="91.5" r="4.5" transform="rotate(0,181.5,91.5)"/><circle cx="199.5" cy="91.5" r="4.5" transform="rotate(0,199.5,91.5)"/><circle cx="217.5" cy="91.5" r="4.5" transform="rotate(0,217.5,91.5)"/><circle cx="235.5" cy="91.5" r="4.5" transform="rotate(0,235.5,91.5)"/><circle cx="253.5" cy="91.5" r="4.5" transform="rotate(0,253.5,91.5)"/><circle cx="271.5" cy="91.5" r="4.5" transform="rotate(0,271.5,91.5)"/><circle cx="289.5" cy="91.5" r="4.5" transform="rotate(0,289.5,91.5)"/><circle cx="109.5" cy="100.5" r="4.5" transform="rotate(0,109.5,100.5)"/><circle cx="118.5" cy="100.5" r="4.5" transform="rotate(0,118.5,100.5)"/><circle cx="154.5" cy="100.5" r="4.5" transform="rotate(0,154.5,100.5)"/><circle cx="163.5" cy="100.5" r="4.5" transform="rotate(0,163.5,100.5)"/><circle cx="172.5" cy="100.5" r="4.5" transform="rotate(0,172.5,100.5)"/><circle cx="226.5" cy="100.5" r="4.5" transform="rotate(0,226.5,100.5)"/><circle cx="253.5" cy="100.5" r="4.5" transform="rotate(0,253.5,100.5)"/><circle cx="289.5" cy="100.5" r="4.5" transform="rotate(0,289.5,100.5)"/><circle cx="55.5" cy="109.5" r="4.5" transform="rotate(0,55.5,109.5)"/><circle cx="64.5" cy="109.5" r="4.5" transform="rotate(0,64.5,109.5)"/><circle cx="73.5" cy="109.5" r="4.5" transform="rotate(0,73.5,109.5)"/><circle cx="91.5" cy="109.5" r="4.5" transform="rotate(0,91.5,109.5)"/><circle cx="109.5" cy="109.5" r="4.5" transform="rotate(0,109.5,109.5)"/><circle cx="127.5" cy="109.5" r="4.5" transform="rotate(0,127.5,109.5)"/><circle cx="154.5" cy="109.5" r="4.5" transform="rotate(0,154.5,109.5)"/><circle cx="163.5" cy="109.5" r="4.5" transform="rotate(0,163.5,109.5)"/><circle cx="181.5" cy="109.5" r="4.5" transform="rotate(0,181.5,109.5)"/><circle cx="190.5" cy="109.5" r="4.5" transform="rotate(0,190.5,109.5)"/><circle cx="217.5" cy="109.5" r="4.5" transform="rotate(0,217.5,109.5)"/><circle cx="226.5" cy="109.5" r="4.5" transform="rotate(0,226.5,109.5)"/><circle cx="253.5" cy="109.5" r="4.5" transform="rotate(0,253.5,109.5)"/><circle cx="262.5" cy="109.5" r="4.5" transform="rotate(0,262.5,109.5)"/><circle cx="280.5" cy="109.5" r="4.5" transform="rotate(0,280.5,109.5)"/><circle cx="289.5" cy="109.5" r="4.5" transform="rotate(0,289.5,109.5)"/><circle cx="298.5" cy="109.5" r="4.5" transform="rotate(0,298.5,109.5)"/><circle cx="307.5" cy="109.5" r="4.5" transform="rotate(0,307.5,109.5)"/><circle cx="316.5" cy="109.5" r="4.5" transform="rotate(0,316.5,109.5)"/><circle cx="343.5" cy="109.5" r="4.5" transform="rotate(0,343.5,109.5)"/><circle cx="352.5" cy="109.5" r="4.5" transform="rotate(0,352.5,109.5)"/><circle cx="361.5" cy="109.5" r="4.5" transform="rotate(0,361.5,109.5)"/><circle cx="82.5" cy="118.5" r="4.5" transform="rotate(0,82.5,118.5)"/><circle cx="118.5" cy="118.5" r="4.5" transform="rotate(0,118.5,118.5)"/><circle cx="127.5" cy="118.5" r="4.5" transform="rotate(0,127.5,118.5)"/><circle cx="145.5" cy="118.5" r="4.5" transform="rotate(0,145.5,118.5)"/><circle cx="154.5" cy="118.5" r="4.5" transform="rotate(0,154.5,118.5)"/><circle cx="163.5" cy="118.5" r="4.5" transform="rotate(0,163.5,118.5)"/><circle cx="181.5" cy="118.5" r="4.5" transform="rotate(0,181.5,118.5)"/><circle cx="217.5" cy="118.5" r="4.5" transform="rotate(0,217.5,118.5)"/><circle cx="253.5" cy="118.5" r="4.5" transform="rotate(0,253.5,118.5)"/><circle cx="271.5" cy="118.5" r="4.5" transform="rotate(0,271.5,118.5)"/><circle cx="298.5" cy="118.5" r="4.5" transform="rotate(0,298.5,118.5)"/><circle cx="343.5" cy="118.5" r="4.5" transform="rotate(0,343.5,118.5)"/><circle cx="361.5" cy="118.5" r="4.5" transform="rotate(0,361.5,118.5)"/><circle cx="46.5" cy="127.5" r="4.5" transform="rotate(0,46.5,127.5)"/><circle cx="82.5" cy="127.5" r="4.5" transform="rotate(0,82.5,127.5)"/><circle cx="91.5" cy="127.5" r="4.5" transform="rotate(0,91.5,127.5)"/><circle cx="109.5" cy="127.5" r="4.5" transform="rotate(0,109.5,127.5)"/><circle cx="118.5" cy="127.5" r="4.5" transform="rotate(0,118.5,127.5)"/><circle cx="154.5" cy="127.5" r="4.5" transform="rotate(0,154.5,127.5)"/><circle cx="181.5" cy="127.5" r="4.5" transform="rotate(0,181.5,127.5)"/><circle cx="190.5" cy="127.5" r="4.5" transform="rotate(0,190.5,127.5)"/><circle cx="208.5" cy="127.5" r="4.5" transform="rotate(0,208.5,127.5)"/><circle cx="226.5" cy="127.5" r="4.5" transform="rotate(0,226.5,127.5)"/><circle cx="244.5" cy="127.5" r="4.5" transform="rotate(0,244.5,127.5)"/><circle cx="253.5" cy="127.5" r="4.5" transform="rotate(0,253.5,127.5)"/><circle cx="271.5" cy="127.5" r="4.5" transform="rotate(0,271.5,127.5)"/><circle cx="280.5" cy="127.5" r="4.5" transform="rotate(0,280.5,127.5)"/><circle cx="307.5" cy="127.5" r="4.5" transform="rotate(0,307.5,127.5)"/><circle cx="334.5" cy="127.5" r="4.5" transform="rotate(0,334.5,127.5)"/><circle cx="343.5" cy="127.5" r="4.5" transform="rotate(0,343.5,127.5)"/><circle cx="352.5" cy="127.5" r="4.5" transform="rotate(0,352.5,127.5)"/><circle cx="361.5" cy="127.5" r="4.5" transform="rotate(0,361.5,127.5)"/><circle cx="46.5" cy="136.5" r="4.5" transform="rotate(0,46.5,136.5)"/><circle cx="55.5" cy="136.5" r="4.5" transform="rotate(0,55.5,136.5)"/><circle cx="64.5" cy="136.5" r="4.5" transform="rotate(0,64.5,136.5)"/><circle cx="100.5" cy="136.5" r="4.5" transform="rotate(0,100.5,136.5)"/><circle cx="127.5" cy="136.5" r="4.5" transform="rotate(0,127.5,136.5)"/><circle cx="172.5" cy="136.5" r="4.5" transform="rotate(0,172.5,136.5)"/><circle cx="181.5" cy="136.5" r="4.5" transform="rotate(0,181.5,136.5)"/><circle cx="199.5" cy="136.5" r="4.5" transform="rotate(0,199.5,136.5)"/><circle cx="217.5" cy="136.5" r="4.5" transform="rotate(0,217.5,136.5)"/><circle cx="226.5" cy="136.5" r="4.5" transform="rotate(0,226.5,136.5)"/><circle cx="244.5" cy="136.5" r="4.5" transform="rotate(0,244.5,136.5)"/><circle cx="307.5" cy="136.5" r="4.5" transform="rotate(0,307.5,136.5)"/><circle cx="361.5" cy="136.5" r="4.5" transform="rotate(0,361.5,136.5)"/><circle cx="55.5" cy="145.5" r="4.5" transform="rotate(0,55.5,145.5)"/><circle cx="73.5" cy="145.5" r="4.5" transform="rotate(0,73.5,145.5)"/><circle cx="82.5" cy="145.5" r="4.5" transform="rotate(0,82.5,145.5)"/><circle cx="91.5" cy="145.5" r="4.5" transform="rotate(0,91.5,145.5)"/><circle cx="100.5" cy="145.5" r="4.5" transform="rotate(0,100.5,145.5)"/><circle cx="109.5" cy="145.5" r="4.5" transform="rotate(0,109.5,145.5)"/><circle cx="118.5" cy="145.5" r="4.5" transform="rotate(0,118.5,145.5)"/><circle cx="127.5" cy="145.5" r="4.5" transform="rotate(0,127.5,145.5)"/><circle cx="145.5" cy="145.5" r="4.5" transform="rotate(0,145.5,145.5)"/><circle cx="154.5" cy="145.5" r="4.5" transform="rotate(0,154.5,145.5)"/><circle cx="163.5" cy="145.5" r="4.5" transform="rotate(0,163.5,145.5)"/><circle cx="181.5" cy="145.5" r="4.5" transform="rotate(0,181.5,145.5)"/><circle cx="190.5" cy="145.5" r="4.5" transform="rotate(0,190.5,145.5)"/><circle cx="217.5" cy="145.5" r="4.5" transform="rotate(0,217.5,145.5)"/><circle cx="226.5" cy="145.5" r="4.5" transform="rotate(0,226.5,145.5)"/><circle cx="235.5" cy="145.5" r="4.5" transform="rotate(0,235.5,145.5)"/><circle cx="253.5" cy="145.5" r="4.5" transform="rotate(0,253.5,145.5)"/><circle cx="262.5" cy="145.5" r="4.5" transform="rotate(0,262.5,145.5)"/><circle cx="280.5" cy="145.5" r="4.5" transform="rotate(0,280.5,145.5)"/><circle cx="307.5" cy="145.5" r="4.5" transform="rotate(0,307.5,145.5)"/><circle cx="325.5" cy="145.5" r="4.5" transform="rotate(0,325.5,145.5)"/><circle cx="334.5" cy="145.5" r="4.5" transform="rotate(0,334.5,145.5)"/><circle cx="343.5" cy="145.5" r="4.5" transform="rotate(0,343.5,145.5)"/><circle cx="361.5" cy="145.5" r="4.5" transform="rotate(0,361.5,145.5)"/><circle cx="37.5" cy="154.5" r="4.5" transform="rotate(0,37.5,154.5)"/><circle cx="46.5" cy="154.5" r="4.5" transform="rotate(0,46.5,154.5)"/><circle cx="55.5" cy="154.5" r="4.5" transform="rotate(0,55.5,154.5)"/><circle cx="73.5" cy="154.5" r="4.5" transform="rotate(0,73.5,154.5)"/><circle cx="82.5" cy="154.5" r="4.5" transform="rotate(0,82.5,154.5)"/><circle cx="127.5" cy="154.5" r="4.5" transform="rotate(0,127.5,154.5)"/><circle cx="163.5" cy="154.5" r="4.5" transform="rotate(0,163.5,154.5)"/><circle cx="172.5" cy="154.5" r="4.5" transform="rotate(0,172.5,154.5)"/><circle cx="190.5" cy="154.5" r="4.5" transform="rotate(0,190.5,154.5)"/><circle cx="217.5" cy="154.5" r="4.5" transform="rotate(0,217.5,154.5)"/><circle cx="262.5" cy="154.5" r="4.5" transform="rotate(0,262.5,154.5)"/><circle cx="271.5" cy="154.5" r="4.5" transform="rotate(0,271.5,154.5)"/><circle cx="289.5" cy="154.5" r="4.5" transform="rotate(0,289.5,154.5)"/><circle cx="298.5" cy="154.5" r="4.5" transform="rotate(0,298.5,154.5)"/><circle cx="316.5" cy="154.5" r="4.5" transform="rotate(0,316.5,154.5)"/><circle cx="334.5" cy="154.5" r="4.5" transform="rotate(0,334.5,154.5)"/><circle cx="352.5" cy="154.5" r="4.5" transform="rotate(0,352.5,154.5)"/><circle cx="37.5" cy="163.5" r="4.5" transform="rotate(0,37.5,163.5)"/><circle cx="46.5" cy="163.5" r="4.5" transform="rotate(0,46.5,163.5)"/><circle cx="55.5" cy="163.5" r="4.5" transform="rotate(0,55.5,163.5)"/><circle cx="64.5" cy="163.5" r="4.5" transform="rotate(0,64.5,163.5)"/><circle cx="73.5" cy="163.5" r="4.5" transform="rotate(0,73.5,163.5)"/><circle cx="82.5" cy="163.5" r="4.5" transform="rotate(0,82.5,163.5)"/><circle cx="91.5" cy="163.5" r="4.5" transform="rotate(0,91.5,163.5)"/><circle cx="100.5" cy="163.5" r="4.5" transform="rotate(0,100.5,163.5)"/><circle cx="109.5" cy="163.5" r="4.5" transform="rotate(0,109.5,163.5)"/><circle cx="127.5" cy="163.5" r="4.5" transform="rotate(0,127.5,163.5)"/><circle cx="145.5" cy="163.5" r="4.5" transform="rotate(0,145.5,163.5)"/><circle cx="154.5" cy="163.5" r="4.5" transform="rotate(0,154.5,163.5)"/><circle cx="163.5" cy="163.5" r="4.5" transform="rotate(0,163.5,163.5)"/><circle cx="172.5" cy="163.5" r="4.5" transform="rotate(0,172.5,163.5)"/><circle cx="199.5" cy="163.5" r="4.5" transform="rotate(0,199.5,163.5)"/><circle cx="226.5" cy="163.5" r="4.5" transform="rotate(0,226.5,163.5)"/><circle cx="235.5" cy="163.5" r="4.5" transform="rotate(0,235.5,163.5)"/><circle cx="244.5" cy="163.5" r="4.5" transform="rotate(0,244.5,163.5)"/><circle cx="262.5" cy="163.5" r="4.5" transform="rotate(0,262.5,163.5)"/><circle cx="280.5" cy="163.5" r="4.5" transform="rotate(0,280.5,163.5)"/><circle cx="307.5" cy="163.5" r="4.5" transform="rotate(0,307.5,163.5)"/><circle cx="343.5" cy="163.5" r="4.5" transform="rotate(0,343.5,163.5)"/><circle cx="361.5" cy="163.5" r="4.5" transform="rotate(0,361.5,163.5)"/><circle cx="37.5" cy="172.5" r="4.5" transform="rotate(0,37.5,172.5)"/><circle cx="55.5" cy="172.5" r="4.5" transform="rotate(0,55.5,172.5)"/><circle cx="82.5" cy="172.5" r="4.5" transform="rotate(0,82.5,172.5)"/><circle cx="118.5" cy="172.5" r="4.5" transform="rotate(0,118.5,172.5)"/><circle cx="127.5" cy="172.5" r="4.5" transform="rotate(0,127.5,172.5)"/><circle cx="145.5" cy="172.5" r="4.5" transform="rotate(0,145.5,172.5)"/><circle cx="190.5" cy="172.5" r="4.5" transform="rotate(0,190.5,172.5)"/><circle cx="199.5" cy="172.5" r="4.5" transform="rotate(0,199.5,172.5)"/><circle cx="208.5" cy="172.5" r="4.5" transform="rotate(0,208.5,172.5)"/><circle cx="271.5" cy="172.5" r="4.5" transform="rotate(0,271.5,172.5)"/><circle cx="280.5" cy="172.5" r="4.5" transform="rotate(0,280.5,172.5)"/><circle cx="289.5" cy="172.5" r="4.5" transform="rotate(0,289.5,172.5)"/><circle cx="307.5" cy="172.5" r="4.5" transform="rotate(0,307.5,172.5)"/><circle cx="334.5" cy="172.5" r="4.5" transform="rotate(0,334.5,172.5)"/><circle cx="352.5" cy="172.5" r="4.5" transform="rotate(0,352.5,172.5)"/><circle cx="361.5" cy="172.5" r="4.5" transform="rotate(0,361.5,172.5)"/><circle cx="46.5" cy="181.5" r="4.5" transform="rotate(0,46.5,181.5)"/><circle cx="55.5" cy="181.5" r="4.5" transform="rotate(0,55.5,181.5)"/><circle cx="91.5" cy="181.5" r="4.5" transform="rotate(0,91.5,181.5)"/><circle cx="100.5" cy="181.5" r="4.5" transform="rotate(0,100.5,181.5)"/><circle cx="163.5" cy="181.5" r="4.5" transform="rotate(0,163.5,181.5)"/><circle cx="172.5" cy="181.5" r="4.5" transform="rotate(0,172.5,181.5)"/><circle cx="190.5" cy="181.5" r="4.5" transform="rotate(0,190.5,181.5)"/><circle cx="208.5" cy="181.5" r="4.5" transform="rotate(0,208.5,181.5)"/><circle cx="226.5" cy="181.5" r="4.5" transform="rotate(0,226.5,181.5)"/><circle cx="271.5" cy="181.5" r="4.5" transform="rotate(0,271.5,181.5)"/><circle cx="280.5" cy="181.5" r="4.5" transform="rotate(0,280.5,181.5)"/><circle cx="289.5" cy="181.5" r="4.5" transform="rotate(0,289.5,181.5)"/><circle cx="307.5" cy="181.5" r="4.5" transform="rotate(0,307.5,181.5)"/><circle cx="316.5" cy="181.5" r="4.5" transform="rotate(0,316.5,181.5)"/><circle cx="325.5" cy="181.5" r="4.5" transform="rotate(0,325.5,181.5)"/><circle cx="343.5" cy="181.5" r="4.5" transform="rotate(0,343.5,181.5)"/><circle cx="361.5" cy="181.5" r="4.5" transform="rotate(0,361.5,181.5)"/><circle cx="37.5" cy="190.5" r="4.5" transform="rotate(0,37.5,190.5)"/><circle cx="73.5" cy="190.5" r="4.5" transform="rotate(0,73.5,190.5)"/><circle cx="109.5" cy="190.5" r="4.5" transform="rotate(0,109.5,190.5)"/><circle cx="127.5" cy="190.5" r="4.5" transform="rotate(0,127.5,190.5)"/><circle cx="136.5" cy="190.5" r="4.5" transform="rotate(0,136.5,190.5)"/><circle cx="181.5" cy="190.5" r="4.5" transform="rotate(0,181.5,190.5)"/><circle cx="199.5" cy="190.5" r="4.5" transform="rotate(0,199.5,190.5)"/><circle cx="217.5" cy="190.5" r="4.5" transform="rotate(0,217.5,190.5)"/><circle cx="262.5" cy="190.5" r="4.5" transform="rotate(0,262.5,190.5)"/><circle cx="334.5" cy="190.5" r="4.5" transform="rotate(0,334.5,190.5)"/><circle cx="343.5" cy="190.5" r="4.5" transform="rotate(0,343.5,190.5)"/><circle cx="361.5" cy="190.5" r="4.5" transform="rotate(0,361.5,190.5)"/><circle cx="64.5" cy="199.5" r="4.5" transform="rotate(0,64.5,199.5)"/><circle cx="91.5" cy="199.5" r="4.5" transform="rotate(0,91.5,199.5)"/><circle cx="109.5" cy="199.5" r="4.5" transform="rotate(0,109.5,199.5)"/><circle cx="136.5" cy="199.5" r="4.5" transform="rotate(0,136.5,199.5)"/><circle cx="145.5" cy="199.5" r="4.5" transform="rotate(0,145.5,199.5)"/><circle cx="163.5" cy="199.5" r="4.5" transform="rotate(0,163.5,199.5)"/><circle cx="172.5" cy="199.5" r="4.5" transform="rotate(0,172.5,199.5)"/><circle cx="217.5" cy="199.5" r="4.5" transform="rotate(0,217.5,199.5)"/><circle cx="235.5" cy="199.5" r="4.5" transform="rotate(0,235.5,199.5)"/><circle cx="244.5" cy="199.5" r="4.5" transform="rotate(0,244.5,199.5)"/><circle cx="271.5" cy="199.5" r="4.5" transform="rotate(0,271.5,199.5)"/><circle cx="280.5" cy="199.5" r="4.5" transform="rotate(0,280.5,199.5)"/><circle cx="307.5" cy="199.5" r="4.5" transform="rotate(0,307.5,199.5)"/><circle cx="343.5" cy="199.5" r="4.5" transform="rotate(0,343.5,199.5)"/><circle cx="352.5" cy="199.5" r="4.5" transform="rotate(0,352.5,199.5)"/><circle cx="361.5" cy="199.5" r="4.5" transform="rotate(0,361.5,199.5)"/><circle cx="55.5" cy="208.5" r="4.5" transform="rotate(0,55.5,208.5)"/><circle cx="73.5" cy="208.5" r="4.5" transform="rotate(0,73.5,208.5)"/><circle cx="100.5" cy="208.5" r="4.5" transform="rotate(0,100.5,208.5)"/><circle cx="109.5" cy="208.5" r="4.5" transform="rotate(0,109.5,208.5)"/><circle cx="136.5" cy="208.5" r="4.5" transform="rotate(0,136.5,208.5)"/><circle cx="145.5" cy="208.5" r="4.5" transform="rotate(0,145.5,208.5)"/><circle cx="190.5" cy="208.5" r="4.5" transform="rotate(0,190.5,208.5)"/><circle cx="208.5" cy="208.5" r="4.5" transform="rotate(0,208.5,208.5)"/><circle cx="217.5" cy="208.5" r="4.5" transform="rotate(0,217.5,208.5)"/><circle cx="226.5" cy="208.5" r="4.5" transform="rotate(0,226.5,208.5)"/><circle cx="235.5" cy="208.5" r="4.5" transform="rotate(0,235.5,208.5)"/><circle cx="253.5" cy="208.5" r="4.5" transform="rotate(0,253.5,208.5)"/><circle cx="280.5" cy="208.5" r="4.5" transform="rotate(0,280.5,208.5)"/><circle cx="298.5" cy="208.5" r="4.5" transform="rotate(0,298.5,208.5)"/><circle cx="307.5" cy="208.5" r="4.5" transform="rotate(0,307.5,208.5)"/><circle cx="334.5" cy="208.5" r="4.5" transform="rotate(0,334.5,208.5)"/><circle cx="352.5" cy="208.5" r="4.5" transform="rotate(0,352.5,208.5)"/><circle cx="46.5" cy="217.5" r="4.5" transform="rotate(0,46.5,217.5)"/><circle cx="82.5" cy="217.5" r="4.5" transform="rotate(0,82.5,217.5)"/><circle cx="91.5" cy="217.5" r="4.5" transform="rotate(0,91.5,217.5)"/><circle cx="145.5" cy="217.5" r="4.5" transform="rotate(0,145.5,217.5)"/><circle cx="163.5" cy="217.5" r="4.5" transform="rotate(0,163.5,217.5)"/><circle cx="172.5" cy="217.5" r="4.5" transform="rotate(0,172.5,217.5)"/><circle cx="181.5" cy="217.5" r="4.5" transform="rotate(0,181.5,217.5)"/><circle cx="226.5" cy="217.5" r="4.5" transform="rotate(0,226.5,217.5)"/><circle cx="244.5" cy="217.5" r="4.5" transform="rotate(0,244.5,217.5)"/><circle cx="253.5" cy="217.5" r="4.5" transform="rotate(0,253.5,217.5)"/><circle cx="262.5" cy="217.5" r="4.5" transform="rotate(0,262.5,217.5)"/><circle cx="280.5" cy="217.5" r="4.5" transform="rotate(0,280.5,217.5)"/><circle cx="289.5" cy="217.5" r="4.5" transform="rotate(0,289.5,217.5)"/><circle cx="307.5" cy="217.5" r="4.5" transform="rotate(0,307.5,217.5)"/><circle cx="316.5" cy="217.5" r="4.5" transform="rotate(0,316.5,217.5)"/><circle cx="325.5" cy="217.5" r="4.5" transform="rotate(0,325.5,217.5)"/><circle cx="343.5" cy="217.5" r="4.5" transform="rotate(0,343.5,217.5)"/><circle cx="37.5" cy="226.5" r="4.5" transform="rotate(0,37.5,226.5)"/><circle cx="46.5" cy="226.5" r="4.5" transform="rotate(0,46.5,226.5)"/><circle cx="82.5" cy="226.5" r="4.5" transform="rotate(0,82.5,226.5)"/><circle cx="100.5" cy="226.5" r="4.5" transform="rotate(0,100.5,226.5)"/><circle cx="109.5" cy="226.5" r="4.5" transform="rotate(0,109.5,226.5)"/><circle cx="118.5" cy="226.5" r="4.5" transform="rotate(0,118.5,226.5)"/><circle cx="136.5" cy="226.5" r="4.5" transform="rotate(0,136.5,226.5)"/><circle cx="145.5" cy="226.5" r="4.5" transform="rotate(0,145.5,226.5)"/><circle cx="154.5" cy="226.5" r="4.5" transform="rotate(0,154.5,226.5)"/><circle cx="163.5" cy="226.5" r="4.5" transform="rotate(0,163.5,226.5)"/><circle cx="172.5" cy="226.5" r="4.5" transform="rotate(0,172.5,226.5)"/><circle cx="181.5" cy="226.5" r="4.5" transform="rotate(0,181.5,226.5)"/><circle cx="190.5" cy="226.5" r="4.5" transform="rotate(0,190.5,226.5)"/><circle cx="208.5" cy="226.5" r="4.5" transform="rotate(0,208.5,226.5)"/><circle cx="226.5" cy="226.5" r="4.5" transform="rotate(0,226.5,226.5)"/><circle cx="244.5" cy="226.5" r="4.5" transform="rotate(0,244.5,226.5)"/><circle cx="253.5" cy="226.5" r="4.5" transform="rotate(0,253.5,226.5)"/><circle cx="262.5" cy="226.5" r="4.5" transform="rotate(0,262.5,226.5)"/><circle cx="334.5" cy="226.5" r="4.5" transform="rotate(0,334.5,226.5)"/><circle cx="37.5" cy="235.5" r="4.5" transform="rotate(0,37.5,235.5)"/><circle cx="46.5" cy="235.5" r="4.5" transform="rotate(0,46.5,235.5)"/><circle cx="55.5" cy="235.5" r="4.5" transform="rotate(0,55.5,235.5)"/><circle cx="64.5" cy="235.5" r="4.5" transform="rotate(0,64.5,235.5)"/><circle cx="91.5" cy="235.5" r="4.5" transform="rotate(0,91.5,235.5)"/><circle cx="109.5" cy="235.5" r="4.5" transform="rotate(0,109.5,235.5)"/><circle cx="118.5" cy="235.5" r="4.5" transform="rotate(0,118.5,235.5)"/><circle cx="136.5" cy="235.5" r="4.5" transform="rotate(0,136.5,235.5)"/><circle cx="145.5" cy="235.5" r="4.5" transform="rotate(0,145.5,235.5)"/><circle cx="154.5" cy="235.5" r="4.5" transform="rotate(0,154.5,235.5)"/><circle cx="199.5" cy="235.5" r="4.5" transform="rotate(0,199.5,235.5)"/><circle cx="217.5" cy="235.5" r="4.5" transform="rotate(0,217.5,235.5)"/><circle cx="244.5" cy="235.5" r="4.5" transform="rotate(0,244.5,235.5)"/><circle cx="262.5" cy="235.5" r="4.5" transform="rotate(0,262.5,235.5)"/><circle cx="280.5" cy="235.5" r="4.5" transform="rotate(0,280.5,235.5)"/><circle cx="307.5" cy="235.5" r="4.5" transform="rotate(0,307.5,235.5)"/><circle cx="316.5" cy="235.5" r="4.5" transform="rotate(0,316.5,235.5)"/><circle cx="325.5" cy="235.5" r="4.5" transform="rotate(0,325.5,235.5)"/><circle cx="343.5" cy="235.5" r="4.5" transform="rotate(0,343.5,235.5)"/><circle cx="352.5" cy="235.5" r="4.5" transform="rotate(0,352.5,235.5)"/><circle cx="361.5" cy="235.5" r="4.5" transform="rotate(0,361.5,235.5)"/><circle cx="46.5" cy="244.5" r="4.5" transform="rotate(0,46.5,244.5)"/><circle cx="55.5" cy="244.5" r="4.5" transform="rotate(0,55.5,244.5)"/><circle cx="64.5" cy="244.5" r="4.5" transform="rotate(0,64.5,244.5)"/><circle cx="73.5" cy="244.5" r="4.5" transform="rotate(0,73.5,244.5)"/><circle cx="100.5" cy="244.5" r="4.5" transform="rotate(0,100.5,244.5)"/><circle cx="109.5" cy="244.5" r="4.5" transform="rotate(0,109.5,244.5)"/><circle cx="127.5" cy="244.5" r="4.5" transform="rotate(0,127.5,244.5)"/><circle cx="145.5" cy="244.5" r="4.5" transform="rotate(0,145.5,244.5)"/><circle cx="181.5" cy="244.5" r="4.5" transform="rotate(0,181.5,244.5)"/><circle cx="190.5" cy="244.5" r="4.5" transform="rotate(0,190.5,244.5)"/><circle cx="217.5" cy="244.5" r="4.5" transform="rotate(0,217.5,244.5)"/><circle cx="235.5" cy="244.5" r="4.5" transform="rotate(0,235.5,244.5)"/><circle cx="244.5" cy="244.5" r="4.5" transform="rotate(0,244.5,244.5)"/><circle cx="253.5" cy="244.5" r="4.5" transform="rotate(0,253.5,244.5)"/><circle cx="271.5" cy="244.5" r="4.5" transform="rotate(0,271.5,244.5)"/><circle cx="280.5" cy="244.5" r="4.5" transform="rotate(0,280.5,244.5)"/><circle cx="316.5" cy="244.5" r="4.5" transform="rotate(0,316.5,244.5)"/><circle cx="352.5" cy="244.5" r="4.5" transform="rotate(0,352.5,244.5)"/><circle cx="361.5" cy="244.5" r="4.5" transform="rotate(0,361.5,244.5)"/><circle cx="46.5" cy="253.5" r="4.5" transform="rotate(0,46.5,253.5)"/><circle cx="55.5" cy="253.5" r="4.5" transform="rotate(0,55.5,253.5)"/><circle cx="64.5" cy="253.5" r="4.5" transform="rotate(0,64.5,253.5)"/><circle cx="73.5" cy="253.5" r="4.5" transform="rotate(0,73.5,253.5)"/><circle cx="91.5" cy="253.5" r="4.5" transform="rotate(0,91.5,253.5)"/><circle cx="109.5" cy="253.5" r="4.5" transform="rotate(0,109.5,253.5)"/><circle cx="118.5" cy="253.5" r="4.5" transform="rotate(0,118.5,253.5)"/><circle cx="154.5" cy="253.5" r="4.5" transform="rotate(0,154.5,253.5)"/><circle cx="190.5" cy="253.5" r="4.5" transform="rotate(0,190.5,253.5)"/><circle cx="199.5" cy="253.5" r="4.5" transform="rotate(0,199.5,253.5)"/><circle cx="208.5" cy="253.5" r="4.5" transform="rotate(0,208.5,253.5)"/><circle cx="226.5" cy="253.5" r="4.5" transform="rotate(0,226.5,253.5)"/><circle cx="253.5" cy="253.5" r="4.5" transform="rotate(0,253.5,253.5)"/><circle cx="262.5" cy="253.5" r="4.5" transform="rotate(0,262.5,253.5)"/><circle cx="280.5" cy="253.5" r="4.5" transform="rotate(0,280.5,253.5)"/><circle cx="289.5" cy="253.5" r="4.5" transform="rotate(0,289.5,253.5)"/><circle cx="307.5" cy="253.5" r="4.5" transform="rotate(0,307.5,253.5)"/><circle cx="325.5" cy="253.5" r="4.5" transform="rotate(0,325.5,253.5)"/><circle cx="334.5" cy="253.5" r="4.5" transform="rotate(0,334.5,253.5)"/><circle cx="343.5" cy="253.5" r="4.5" transform="rotate(0,343.5,253.5)"/><circle cx="352.5" cy="253.5" r="4.5" transform="rotate(0,352.5,253.5)"/><circle cx="361.5" cy="253.5" r="4.5" transform="rotate(0,361.5,253.5)"/><circle cx="37.5" cy="262.5" r="4.5" transform="rotate(0,37.5,262.5)"/><circle cx="55.5" cy="262.5" r="4.5" transform="rotate(0,55.5,262.5)"/><circle cx="73.5" cy="262.5" r="4.5" transform="rotate(0,73.5,262.5)"/><circle cx="100.5" cy="262.5" r="4.5" transform="rotate(0,100.5,262.5)"/><circle cx="109.5" cy="262.5" r="4.5" transform="rotate(0,109.5,262.5)"/><circle cx="127.5" cy="262.5" r="4.5" transform="rotate(0,127.5,262.5)"/><circle cx="145.5" cy="262.5" r="4.5" transform="rotate(0,145.5,262.5)"/><circle cx="154.5" cy="262.5" r="4.5" transform="rotate(0,154.5,262.5)"/><circle cx="172.5" cy="262.5" r="4.5" transform="rotate(0,172.5,262.5)"/><circle cx="208.5" cy="262.5" r="4.5" transform="rotate(0,208.5,262.5)"/><circle cx="217.5" cy="262.5" r="4.5" transform="rotate(0,217.5,262.5)"/><circle cx="271.5" cy="262.5" r="4.5" transform="rotate(0,271.5,262.5)"/><circle cx="298.5" cy="262.5" r="4.5" transform="rotate(0,298.5,262.5)"/><circle cx="37.5" cy="271.5" r="4.5" transform="rotate(0,37.5,271.5)"/><circle cx="55.5" cy="271.5" r="4.5" transform="rotate(0,55.5,271.5)"/><circle cx="64.5" cy="271.5" r="4.5" transform="rotate(0,64.5,271.5)"/><circle cx="82.5" cy="271.5" r="4.5" transform="rotate(0,82.5,271.5)"/><circle cx="91.5" cy="271.5" r="4.5" transform="rotate(0,91.5,271.5)"/><circle cx="109.5" cy="271.5" r="4.5" transform="rotate(0,109.5,271.5)"/><circle cx="127.5" cy="271.5" r="4.5" transform="rotate(0,127.5,271.5)"/><circle cx="154.5" cy="271.5" r="4.5" transform="rotate(0,154.5,271.5)"/><circle cx="163.5" cy="271.5" r="4.5" transform="rotate(0,163.5,271.5)"/><circle cx="181.5" cy="271.5" r="4.5" transform="rotate(0,181.5,271.5)"/><circle cx="199.5" cy="271.5" r="4.5" transform="rotate(0,199.5,271.5)"/><circle cx="217.5" cy="271.5" r="4.5" transform="rotate(0,217.5,271.5)"/><circle cx="244.5" cy="271.5" r="4.5" transform="rotate(0,244.5,271.5)"/><circle cx="253.5" cy="271.5" r="4.5" transform="rotate(0,253.5,271.5)"/><circle cx="262.5" cy="271.5" r="4.5" transform="rotate(0,262.5,271.5)"/><circle cx="280.5" cy="271.5" r="4.5" transform="rotate(0,280.5,271.5)"/><circle cx="307.5" cy="271.5" r="4.5" transform="rotate(0,307.5,271.5)"/><circle cx="316.5" cy="271.5" r="4.5" transform="rotate(0,316.5,271.5)"/><circle cx="325.5" cy="271.5" r="4.5" transform="rotate(0,325.5,271.5)"/><circle cx="334.5" cy="271.5" r="4.5" transform="rotate(0,334.5,271.5)"/><circle cx="361.5" cy="271.5" r="4.5" transform="rotate(0,361.5,271.5)"/><circle cx="37.5" cy="280.5" r="4.5" transform="rotate(0,37.5,280.5)"/><circle cx="55.5" cy="280.5" r="4.5" transform="rotate(0,55.5,280.5)"/><circle cx="73.5" cy="280.5" r="4.5" transform="rotate(0,73.5,280.5)"/><circle cx="82.5" cy="280.5" r="4.5" transform="rotate(0,82.5,280.5)"/><circle cx="100.5" cy="280.5" r="4.5" transform="rotate(0,100.5,280.5)"/><circle cx="109.5" cy="280.5" r="4.5" transform="rotate(0,109.5,280.5)"/><circle cx="118.5" cy="280.5" r="4.5" transform="rotate(0,118.5,280.5)"/><circle cx="127.5" cy="280.5" r="4.5" transform="rotate(0,127.5,280.5)"/><circle cx="136.5" cy="280.5" r="4.5" transform="rotate(0,136.5,280.5)"/><circle cx="154.5" cy="280.5" r="4.5" transform="rotate(0,154.5,280.5)"/><circle cx="163.5" cy="280.5" r="4.5" transform="rotate(0,163.5,280.5)"/><circle cx="244.5" cy="280.5" r="4.5" transform="rotate(0,244.5,280.5)"/><circle cx="280.5" cy="280.5" r="4.5" transform="rotate(0,280.5,280.5)"/><circle cx="298.5" cy="280.5" r="4.5" transform="rotate(0,298.5,280.5)"/><circle cx="316.5" cy="280.5" r="4.5" transform="rotate(0,316.5,280.5)"/><circle cx="325.5" cy="280.5" r="4.5" transform="rotate(0,325.5,280.5)"/><circle cx="352.5" cy="280.5" r="4.5" transform="rotate(0,352.5,280.5)"/><circle cx="361.5" cy="280.5" r="4.5" transform="rotate(0,361.5,280.5)"/><circle cx="37.5" cy="289.5" r="4.5" transform="rotate(0,37.5,289.5)"/><circle cx="55.5" cy="289.5" r="4.5" transform="rotate(0,55.5,289.5)"/><circle cx="64.5" cy="289.5" r="4.5" transform="rotate(0,64.5,289.5)"/><circle cx="73.5" cy="289.5" r="4.5" transform="rotate(0,73.5,289.5)"/><circle cx="82.5" cy="289.5" r="4.5" transform="rotate(0,82.5,289.5)"/><circle cx="91.5" cy="289.5" r="4.5" transform="rotate(0,91.5,289.5)"/><circle cx="118.5" cy="289.5" r="4.5" transform="rotate(0,118.5,289.5)"/><circle cx="127.5" cy="289.5" r="4.5" transform="rotate(0,127.5,289.5)"/><circle cx="136.5" cy="289.5" r="4.5" transform="rotate(0,136.5,289.5)"/><circle cx="163.5" cy="289.5" r="4.5" transform="rotate(0,163.5,289.5)"/><circle cx="181.5" cy="289.5" r="4.5" transform="rotate(0,181.5,289.5)"/><circle cx="190.5" cy="289.5" r="4.5" transform="rotate(0,190.5,289.5)"/><circle cx="226.5" cy="289.5" r="4.5" transform="rotate(0,226.5,289.5)"/><circle cx="235.5" cy="289.5" r="4.5" transform="rotate(0,235.5,289.5)"/><circle cx="244.5" cy="289.5" r="4.5" transform="rotate(0,244.5,289.5)"/><circle cx="262.5" cy="289.5" r="4.5" transform="rotate(0,262.5,289.5)"/><circle cx="280.5" cy="289.5" r="4.5" transform="rotate(0,280.5,289.5)"/><circle cx="289.5" cy="289.5" r="4.5" transform="rotate(0,289.5,289.5)"/><circle cx="298.5" cy="289.5" r="4.5" transform="rotate(0,298.5,289.5)"/><circle cx="307.5" cy="289.5" r="4.5" transform="rotate(0,307.5,289.5)"/><circle cx="316.5" cy="289.5" r="4.5" transform="rotate(0,316.5,289.5)"/><circle cx="325.5" cy="289.5" r="4.5" transform="rotate(0,325.5,289.5)"/><circle cx="334.5" cy="289.5" r="4.5" transform="rotate(0,334.5,289.5)"/><circle cx="343.5" cy="289.5" r="4.5" transform="rotate(0,343.5,289.5)"/><circle cx="361.5" cy="289.5" r="4.5" transform="rotate(0,361.5,289.5)"/><circle cx="109.5" cy="298.5" r="4.5" transform="rotate(0,109.5,298.5)"/><circle cx="118.5" cy="298.5" r="4.5" transform="rotate(0,118.5,298.5)"/><circle cx="127.5" cy="298.5" r="4.5" transform="rotate(0,127.5,298.5)"/><circle cx="154.5" cy="298.5" r="4.5" transform="rotate(0,154.5,298.5)"/><circle cx="172.5" cy="298.5" r="4.5" transform="rotate(0,172.5,298.5)"/><circle cx="235.5" cy="298.5" r="4.5" transform="rotate(0,235.5,298.5)"/><circle cx="244.5" cy="298.5" r="4.5" transform="rotate(0,244.5,298.5)"/><circle cx="262.5" cy="298.5" r="4.5" transform="rotate(0,262.5,298.5)"/><circle cx="271.5" cy="298.5" r="4.5" transform="rotate(0,271.5,298.5)"/><circle cx="280.5" cy="298.5" r="4.5" transform="rotate(0,280.5,298.5)"/><circle cx="289.5" cy="298.5" r="4.5" transform="rotate(0,289.5,298.5)"/><circle cx="325.5" cy="298.5" r="4.5" transform="rotate(0,325.5,298.5)"/><circle cx="334.5" cy="298.5" r="4.5" transform="rotate(0,334.5,298.5)"/><circle cx="352.5" cy="298.5" r="4.5" transform="rotate(0,352.5,298.5)"/><circle cx="127.5" cy="307.5" r="4.5" transform="rotate(0,127.5,307.5)"/><circle cx="163.5" cy="307.5" r="4.5" transform="rotate(0,163.5,307.5)"/><circle cx="190.5" cy="307.5" r="4.5" transform="rotate(0,190.5,307.5)"/><circle cx="199.5" cy="307.5" r="4.5" transform="rotate(0,199.5,307.5)"/><circle cx="208.5" cy="307.5" r="4.5" transform="rotate(0,208.5,307.5)"/><circle cx="226.5" cy="307.5" r="4.5" transform="rotate(0,226.5,307.5)"/><circle cx="235.5" cy="307.5" r="4.5" transform="rotate(0,235.5,307.5)"/><circle cx="271.5" cy="307.5" r="4.5" transform="rotate(0,271.5,307.5)"/><circle cx="289.5" cy="307.5" r="4.5" transform="rotate(0,289.5,307.5)"/><circle cx="307.5" cy="307.5" r="4.5" transform="rotate(0,307.5,307.5)"/><circle cx="325.5" cy="307.5" r="4.5" transform="rotate(0,325.5,307.5)"/><circle cx="334.5" cy="307.5" r="4.5" transform="rotate(0,334.5,307.5)"/><circle cx="361.5" cy="307.5" r="4.5" transform="rotate(0,361.5,307.5)"/><circle cx="118.5" cy="316.5" r="4.5" transform="rotate(0,118.5,316.5)"/><circle cx="136.5" cy="316.5" r="4.5" transform="rotate(0,136.5,316.5)"/><circle cx="145.5" cy="316.5" r="4.5" transform="rotate(0,145.5,316.5)"/><circle cx="154.5" cy="316.5" r="4.5" transform="rotate(0,154.5,316.5)"/><circle cx="190.5" cy="316.5" r="4.5" transform="rotate(0,190.5,316.5)"/><circle cx="199.5" cy="316.5" r="4.5" transform="rotate(0,199.5,316.5)"/><circle cx="235.5" cy="316.5" r="4.5" transform="rotate(0,235.5,316.5)"/><circle cx="289.5" cy="316.5" r="4.5" transform="rotate(0,289.5,316.5)"/><circle cx="325.5" cy="316.5" r="4.5" transform="rotate(0,325.5,316.5)"/><circle cx="334.5" cy="316.5" r="4.5" transform="rotate(0,334.5,316.5)"/><circle cx="352.5" cy="316.5" r="4.5" transform="rotate(0,352.5,316.5)"/><circle cx="361.5" cy="316.5" r="4.5" transform="rotate(0,361.5,316.5)"/><circle cx="109.5" cy="325.5" r="4.5" transform="rotate(0,109.5,325.5)"/><circle cx="127.5" cy="325.5" r="4.5" transform="rotate(0,127.5,325.5)"/><circle cx="136.5" cy="325.5" r="4.5" transform="rotate(0,136.5,325.5)"/><circle cx="172.5" cy="325.5" r="4.5" transform="rotate(0,172.5,325.5)"/><circle cx="190.5" cy="325.5" r="4.5" transform="rotate(0,190.5,325.5)"/><circle cx="217.5" cy="325.5" r="4.5" transform="rotate(0,217.5,325.5)"/><circle cx="244.5" cy="325.5" r="4.5" transform="rotate(0,244.5,325.5)"/><circle cx="253.5" cy="325.5" r="4.5" transform="rotate(0,253.5,325.5)"/><circle cx="262.5" cy="325.5" r="4.5" transform="rotate(0,262.5,325.5)"/><circle cx="271.5" cy="325.5" r="4.5" transform="rotate(0,271.5,325.5)"/><circle cx="280.5" cy="325.5" r="4.5" transform="rotate(0,280.5,325.5)"/><circle cx="289.5" cy="325.5" r="4.5" transform="rotate(0,289.5,325.5)"/><circle cx="298.5" cy="325.5" r="4.5" transform="rotate(0,298.5,325.5)"/><circle cx="307.5" cy="325.5" r="4.5" transform="rotate(0,307.5,325.5)"/><circle cx="316.5" cy="325.5" r="4.5" transform="rotate(0,316.5,325.5)"/><circle cx="325.5" cy="325.5" r="4.5" transform="rotate(0,325.5,325.5)"/><circle cx="343.5" cy="325.5" r="4.5" transform="rotate(0,343.5,325.5)"/><circle cx="361.5" cy="325.5" r="4.5" transform="rotate(0,361.5,325.5)"/><circle cx="109.5" cy="334.5" r="4.5" transform="rotate(0,109.5,334.5)"/><circle cx="127.5" cy="334.5" r="4.5" transform="rotate(0,127.5,334.5)"/><circle cx="145.5" cy="334.5" r="4.5" transform="rotate(0,145.5,334.5)"/><circle cx="154.5" cy="334.5" r="4.5" transform="rotate(0,154.5,334.5)"/><circle cx="172.5" cy="334.5" r="4.5" transform="rotate(0,172.5,334.5)"/><circle cx="181.5" cy="334.5" r="4.5" transform="rotate(0,181.5,334.5)"/><circle cx="235.5" cy="334.5" r="4.5" transform="rotate(0,235.5,334.5)"/><circle cx="253.5" cy="334.5" r="4.5" transform="rotate(0,253.5,334.5)"/><circle cx="280.5" cy="334.5" r="4.5" transform="rotate(0,280.5,334.5)"/><circle cx="307.5" cy="334.5" r="4.5" transform="rotate(0,307.5,334.5)"/><circle cx="316.5" cy="334.5" r="4.5" transform="rotate(0,316.5,334.5)"/><circle cx="325.5" cy="334.5" r="4.5" transform="rotate(0,325.5,334.5)"/><circle cx="334.5" cy="334.5" r="4.5" transform="rotate(0,334.5,334.5)"/><circle cx="109.5" cy="343.5" r="4.5" transform="rotate(0,109.5,343.5)"/><circle cx="118.5" cy="343.5" r="4.5" transform="rotate(0,118.5,343.5)"/><circle cx="127.5" cy="343.5" r="4.5" transform="rotate(0,127.5,343.5)"/><circle cx="136.5" cy="343.5" r="4.5" transform="rotate(0,136.5,343.5)"/><circle cx="145.5" cy="343.5" r="4.5" transform="rotate(0,145.5,343.5)"/><circle cx="154.5" cy="343.5" r="4.5" transform="rotate(0,154.5,343.5)"/><circle cx="163.5" cy="343.5" r="4.5" transform="rotate(0,163.5,343.5)"/><circle cx="172.5" cy="343.5" r="4.5" transform="rotate(0,172.5,343.5)"/><circle cx="190.5" cy="343.5" r="4.5" transform="rotate(0,190.5,343.5)"/><circle cx="199.5" cy="343.5" r="4.5" transform="rotate(0,199.5,343.5)"/><circle cx="217.5" cy="343.5" r="4.5" transform="rotate(0,217.5,343.5)"/><circle cx="253.5" cy="343.5" r="4.5" transform="rotate(0,253.5,343.5)"/><circle cx="280.5" cy="343.5" r="4.5" transform="rotate(0,280.5,343.5)"/><circle cx="298.5" cy="343.5" r="4.5" transform="rotate(0,298.5,343.5)"/><circle cx="316.5" cy="343.5" r="4.5" transform="rotate(0,316.5,343.5)"/><circle cx="343.5" cy="343.5" r="4.5" transform="rotate(0,343.5,343.5)"/><circle cx="361.5" cy="343.5" r="4.5" transform="rotate(0,361.5,343.5)"/><circle cx="127.5" cy="352.5" r="4.5" transform="rotate(0,127.5,352.5)"/><circle cx="136.5" cy="352.5" r="4.5" transform="rotate(0,136.5,352.5)"/><circle cx="154.5" cy="352.5" r="4.5" transform="rotate(0,154.5,352.5)"/><circle cx="172.5" cy="352.5" r="4.5" transform="rotate(0,172.5,352.5)"/><circle cx="181.5" cy="352.5" r="4.5" transform="rotate(0,181.5,352.5)"/><circle cx="190.5" cy="352.5" r="4.5" transform="rotate(0,190.5,352.5)"/><circle cx="199.5" cy="352.5" r="4.5" transform="rotate(0,199.5,352.5)"/><circle cx="208.5" cy="352.5" r="4.5" transform="rotate(0,208.5,352.5)"/><circle cx="253.5" cy="352.5" r="4.5" transform="rotate(0,253.5,352.5)"/><circle cx="289.5" cy="352.5" r="4.5" transform="rotate(0,289.5,352.5)"/><circle cx="298.5" cy="352.5" r="4.5" transform="rotate(0,298.5,352.5)"/><circle cx="316.5" cy="352.5" r="4.5" transform="rotate(0,316.5,352.5)"/><circle cx="325.5" cy="352.5" r="4.5" transform="rotate(0,325.5,352.5)"/><circle cx="334.5" cy="352.5" r="4.5" transform="rotate(0,334.5,352.5)"/><circle cx="361.5" cy="352.5" r="4.5" transform="rotate(0,361.5,352.5)"/><circle cx="118.5" cy="361.5" r="4.5" transform="rotate(0,118.5,361.5)"/><circle cx="145.5" cy="361.5" r="4.5" transform="rotate(0,145.5,361.5)"/><circle cx="181.5" cy="361.5" r="4.5" transform="rotate(0,181.5,361.5)"/><circle cx="190.5" cy="361.5" r="4.5" transform="rotate(0,190.5,361.5)"/><circle cx="217.5" cy="361.5" r="4.5" transform="rotate(0,217.5,361.5)"/><circle cx="235.5" cy="361.5" r="4.5" transform="rotate(0,235.5,361.5)"/><circle cx="253.5" cy="361.5" r="4.5" transform="rotate(0,253.5,361.5)"/><circle cx="271.5" cy="361.5" r="4.5" transform="rotate(0,271.5,361.5)"/><circle cx="280.5" cy="361.5" r="4.5" transform="rotate(0,280.5,361.5)"/><circle cx="307.5" cy="361.5" r="4.5" transform="rotate(0,307.5,361.5)"/><circle cx="316.5" cy="361.5" r="4.5" transform="rotate(0,316.5,361.5)"/><circle cx="325.5" cy="361.5" r="4.5" transform="rotate(0,325.5,361.5)"/><circle cx="343.5" cy="361.5" r="4.5" transform="rotate(0,343.5,361.5)"/><circle cx="352.5" cy="361.5" r="4.5" transform="rotate(0,352.5,361.5)"/><circle cx="361.5" cy="361.5" r="4.5" transform="rotate(0,361.5,361.5)"/></clipPath><linearGradient id="dot-color-1" gradientUnits="userSpaceOnUse" x1="0" y1="0" x2="400" y2="400"><stop offset="0%" stop-color="#005baa"/><stop offset="100%" stop-color="#75aadb"/></linearGradient><clipPath id="clip-path-corners-square-color-0-0-1"><path clip-rule="evenodd" d="M 33 55.5v 18a 22.5 22.5, 0, 0, 0, 22.5 22.5h 18a 22.5 22.5, 0, 0, 0, 22.5 -22.5v -18a 22.5 22.5, 0, 0, 0, -22.5 -22.5h -18a 22.5 22.5, 0, 0, 0, -22.5 22.5M 55.5 42h 18a 13.5 13.5, 0, 0, 1, 13.5 13.5v 18a 13.5 13.5, 0, 0, 1, -13.5 13.5h -18a 13.5 13.5, 0, 0, 1, -13.5 -13.5v -18a 13.5 13.5, 0, 0, 1, 13.5 -13.5" transform="rotate(0,64.5,64.5)"/></clipPath><linearGradient id="corners-square-color-0-0-1" gradientUnits="userSpaceOnUse" x1="33" y1="33" x2="96" y2="96"><stop offset="0%" stop-color="#fecc02"/><stop offset="100%" stop-color="#f5c518"/></linearGradient><clipPath id="clip-path-corners-dot-color-0-0-1"><circle cx="64.5" cy="64.5" r="13.5" transform="rotate(0,64.5,64.5)"/></clipPath><clipPath id="clip-path-corners-square-color-1-0-1"><path clip-rule="evenodd" d="M 303 55.5v 18a 22.5 22.5, 0, 0, 0, 22.5 22.5h 18a 22.5 22.5, 0, 0, 0, 22.5 -22.5v -18a 22.5 22.5, 0, 0, 0, -22.5 -22.5h -18a 22.5 22.5, 0, 0, 0, -22.5 22.5M 325.5 42h 18a 13.5 13.5, 0, 0, 1, 13.5 13.5v 18a 13.5 13.5, 0, 0, 1, -13.5 13.5h -18a 13.5 13.5, 0, 0, 1, -13.5 -13.5v -18a 13.5 13.5, 0, 0, 1, 13.5 -13.5" transform="rotate(90,334.5,64.5)"/></clipPath><linearGradient id="corners-square-color-1-0-1" gradientUnits="userSpaceOnUse" x1="366" y1="33" x2="303" y2="96"><stop offset="0%" stop-color="#fecc02"/><stop offset="100%" stop-color="#f5c518"/></linearGradient><clipPath id="clip-path-corners-dot-color-1-0-1"><circle cx="334.5" cy="64.5" r="13.5" transform="rotate(90,334.5,64.5)"/></clipPath><clipPath id="clip-path-corners-square-color-0-1-1"><path clip-rule="evenodd" d="M 33 325.5v 18a 22.5 22.5, 0, 0, 0, 22.5 22.5h 18a 22.5 22.5, 0, 0, 0, 22.5 -22.5v -18a 22.5 22.5, 0, 0, 0, -22.5 -22.5h -18a 22.5 22.5, 0, 0, 0, -22.5 22.5M 55.5 312h 18a 13.5 13.5, 0, 0, 1, 13.5 13.5v 18a 13.5 13.5, 0, 0, 1, -13.5 13.5h -18a 13.5 13.5, 0, 0, 1, -13.5 -13.5v -18a 13.5 13.5, 0, 0, 1, 13.5 -13.5" transform="rotate(-90,64.5,334.5)"/></clipPath><linearGradient id="corners-square-color-0-1-1" gradientUnits="userSpaceOnUse" x1="33" y1="366" x2="96" y2="303"><stop offset="0%" stop-color="#fecc02"/><stop offset="100%" stop-color="#f5c518"/></linearGradient><clipPath id="clip-path-corners-dot-color-0-1-1"><circle cx="64.5" cy="334.5" r="13.5" transform="rotate(-90,64.5,334.5)"/></clipPath></defs><rect x="0" y="0" height="400" width="400" clip-path="url('#clip-path-background-color-1')" fill="#ffffff"/><rect x="0" y="0" height="400" width="400" clip-path="url('#clip-path-dot-color-1')" fill="url('#dot-color-1')"/><rect x="33" y="33" height="63" width="63" clip-path="url('#clip-path-corners-square-color-0-0-1')" fill="url('#corners-square-color-0-0-1')"/><rect x="51" y="51" height="27" width="27" clip-path="url('#clip-path-corners-dot-color-0-0-1')" fill="#005baa"/><rect x="303" y="33" height="63" width="63" clip-path="url('#clip-path-corners-square-color-1-0-1')" fill="url('#corners-square-color-1-0-1')"/><rect x="321" y="51" height="27" width="27" clip-path="url('#clip-path-corners-dot-color-1-0-1')" fill="#005baa"/><rect x="33" y="303" height="63" width="63" clip-path="url('#clip-path-corners-square-color-0-1-1')" fill="url('#corners-square-color-0-1-1')"/><rect x="51" y="321" height="27" width="27" clip-path="url('#clip-path-corners-dot-color-0-1-1')" fill="#005baa"/></svg>